<?xml version="1.0" encoding="UTF-8" standalone="no"?>
<!DOCTYPE svg PUBLIC "-//W3C//DTD SVG 1.1//EN" "http://www.w3.org/Graphics/SVG/1.1/DTD/svg11.dtd">
<svg width="100%" height="100%" viewBox="0 0 65 65" version="1.1" xmlns="http://www.w3.org/2000/svg" xmlns:xlink="http://www.w3.org/1999/xlink" xml:space="preserve" xmlns:serif="http://www.serif.com/" style="fill-rule:evenodd;clip-rule:evenodd;stroke-linejoin:round;stroke-miterlimit:2;">
    <g transform="matrix(1,0,0,1,-3865,-735)">
        <g transform="matrix(1,0,0,1,1383.76,525.372)">
            <g id="ico-extractos" transform="matrix(1,0,0,1,-1.8964,-0.3006)">
                <g transform="matrix(0.977668,0,0,0.977668,-1295.29,-508.198)">
                    <rect x="3865.51" y="734.91" width="65.462" height="65.462" style="fill:none;"/>
                </g>
                <g transform="matrix(1,0,0,1,2503.34,262.001)">
                    <path d="M0,-39.4C-1.654,-39.4 -3,-38.054 -3,-36.4L-3,-3C-3,-1.345 -1.654,0 0,0L25.119,0C26.773,0 28.119,-1.345 28.119,-3L28.119,-36.4C28.119,-38.054 26.773,-39.4 25.119,-39.4L0,-39.4ZM25.119,2L0,2C-2.757,2 -5,-0.243 -5,-3L-5,-36.4C-5,-39.157 -2.757,-41.4 0,-41.4L25.119,-41.4C27.876,-41.4 30.119,-39.157 30.119,-36.4L30.119,-3C30.119,-0.243 27.876,2 25.119,2" style="fill:rgb(0,30,98);fill-rule:nonzero;"/>
                </g>
                <g transform="matrix(1,0,0,1,2526.84,231.761)">
                    <path d="M0,2L-21.883,2C-22.435,2 -22.883,1.553 -22.883,1C-22.883,0.447 -22.435,0 -21.883,0L0,0C0.552,0 1,0.447 1,1C1,1.553 0.552,2 0,2" style="fill:rgb(0,30,98);fill-rule:nonzero;"/>
                </g>
                <g transform="matrix(1,0,0,1,2526.84,238.12)">
                    <path d="M0,2L-21.883,2C-22.435,2 -22.883,1.553 -22.883,1C-22.883,0.447 -22.435,0 -21.883,0L0,0C0.552,0 1,0.447 1,1C1,1.553 0.552,2 0,2" style="fill:rgb(0,30,98);fill-rule:nonzero;"/>
                </g>
                <g transform="matrix(1,0,0,1,2526.84,244.481)">
                    <path d="M0,2L-21.883,2C-22.435,2 -22.883,1.553 -22.883,1C-22.883,0.447 -22.435,0 -21.883,0L0,0C0.552,0 1,0.447 1,1C1,1.553 0.552,2 0,2" style="fill:rgb(0,30,98);fill-rule:nonzero;"/>
                </g>
                <g transform="matrix(1,0,0,1,2526.84,250.841)">
                    <path d="M0,2L-21.883,2C-22.435,2 -22.883,1.553 -22.883,1C-22.883,0.447 -22.435,0 -21.883,0L0,0C0.552,0 1,0.447 1,1C1,1.553 0.552,2 0,2" style="fill:rgb(0,30,98);fill-rule:nonzero;"/>
                </g>
            </g>
        </g>
    </g>
</svg>
