<?xml version="1.0" encoding="UTF-8" standalone="no"?>
<!DOCTYPE svg PUBLIC "-//W3C//DTD SVG 1.1//EN" "http://www.w3.org/Graphics/SVG/1.1/DTD/svg11.dtd">
<svg width="100%" height="100%" viewBox="0 0 110 110" version="1.1" xmlns="http://www.w3.org/2000/svg" xmlns:xlink="http://www.w3.org/1999/xlink" xml:space="preserve" xmlns:serif="http://www.serif.com/" style="fill-rule:evenodd;clip-rule:evenodd;stroke-linecap:round;stroke-linejoin:round;stroke-miterlimit:10;">
    <g transform="matrix(1,0,0,1,-995,-1279)">
        <g id="ico-feature-3" transform="matrix(1,0,0,1,-0.626157,-0.143141)">
            <g transform="matrix(0.999314,0,0,0.999314,748.932,-0.884803)">
                <rect x="247.098" y="1281.9" width="109.075" height="109.075" style="fill:none;"/>
            </g>
            <g transform="matrix(1,0,0,1,0.626157,0.143141)">
                <g transform="matrix(0.533927,0,0,0.533927,1043.34,1301.03)">
                    <path d="M92.7,68.8C91.5,68.8 90.5,69.8 90.5,71L90.5,80.2C90.5,85.9 85.9,90.5 80.2,90.5L70.2,90.5C69,90.5 68,91.5 68,92.7C68,93.9 69,94.9 70.2,94.9L80.2,94.9C88.3,94.9 94.9,88.3 94.9,80.2L94.9,71C94.9,69.8 93.9,68.8 92.7,68.8Z" style="fill:white;fill-rule:nonzero;"/>
                </g>
                <g transform="matrix(0.533927,0,0,0.533927,1043.34,1301.03)">
                    <path d="M80.2,5.1L70.2,5.1C69,5.1 68,6.1 68,7.3C68,8.5 69,9.5 70.2,9.5L80.2,9.5C85.9,9.5 90.5,14.1 90.5,19.8L90.5,30.5C90.5,31.7 91.5,32.7 92.7,32.7C93.9,32.7 94.9,31.7 94.9,30.5L94.9,19.8C94.9,11.7 88.3,5.1 80.2,5.1Z" style="fill:white;fill-rule:nonzero;"/>
                </g>
                <g transform="matrix(0.533927,0,0,0.533927,1043.34,1301.03)">
                    <path d="M68.9,48.9C70.4,48.9 71.6,47.7 71.7,46.2L71.7,39C71.7,37.4 70.5,36.2 68.9,36.2C67.3,36.2 66.1,37.5 66.1,39L66.1,46.1C66.1,47.7 67.4,48.9 68.9,48.9Z" style="fill:white;fill-rule:nonzero;"/>
                </g>
                <g transform="matrix(0.533927,0,0,0.533927,1043.34,1301.03)">
                    <path d="M63.7,68.3C60.1,71.9 55.3,73.9 50.4,73.9L49.6,73.9C44.6,73.9 39.9,71.9 36.3,68.3C35.5,67.4 34.1,67.4 33.2,68.3C32.3,69.1 32.3,70.5 33.2,71.4C37.7,75.9 43.5,78.3 49.6,78.3L50.4,78.3C56.5,78.3 62.4,75.9 66.8,71.4C67.7,70.6 67.7,69.2 66.8,68.3C66,67.4 64.6,67.4 63.7,68.3Z" style="fill:white;fill-rule:nonzero;"/>
                </g>
                <g transform="matrix(0.533927,0,0,0.533927,1043.34,1301.03)">
                    <path d="M44.5,62.2L45,62.2C49.5,62.2 53.1,58.6 53.1,54.2L53.1,39C53.1,37.8 52.1,36.8 50.9,36.8C49.7,36.8 48.7,37.8 48.7,39L48.7,54.1C48.7,56.2 47,57.8 45,57.8L44.5,57.8C43.3,57.8 42.3,58.8 42.3,60C42.3,61.2 43.3,62.2 44.5,62.2Z" style="fill:white;fill-rule:nonzero;"/>
                </g>
                <g transform="matrix(0.533927,0,0,0.533927,1043.34,1301.03)">
                    <path d="M29.7,36.2C28.1,36.2 26.9,37.5 26.9,39L26.9,46.1C26.9,47.7 28.2,48.9 29.7,48.9C31.3,48.9 32.5,47.7 32.5,46.2L32.5,39C32.5,37.4 31.2,36.2 29.7,36.2Z" style="fill:white;fill-rule:nonzero;"/>
                </g>
                <g transform="matrix(0.533927,0,0,0.533927,1043.34,1301.03)">
                    <path d="M7.3,32.7C8.5,32.7 9.5,31.7 9.5,30.5L9.5,19.8C9.5,14.1 14.1,9.5 19.8,9.5L29.8,9.5C31,9.5 32,8.5 32,7.3C32,6.1 31,5.1 29.8,5.1L19.8,5.1C11.7,5.1 5.1,11.7 5.1,19.8L5.1,30.5C5.1,31.7 6.1,32.7 7.3,32.7Z" style="fill:white;fill-rule:nonzero;"/>
                </g>
                <g transform="matrix(0.533927,0,0,0.533927,1043.34,1301.03)">
                    <path d="M29.7,90.5L19.7,90.5C14,90.5 9.4,85.9 9.4,80.2L9.4,71C9.4,69.8 8.4,68.8 7.2,68.8C6,68.8 5,69.8 5,71L5,80.2C5,88.3 11.6,94.9 19.7,94.9L29.7,94.9C31,94.9 31.9,93.9 31.9,92.7C31.9,91.5 30.9,90.5 29.7,90.5Z" style="fill:white;fill-rule:nonzero;"/>
                </g>
            </g>
            <g transform="matrix(1,0,0,1,1039.79,1350.49)">
                <path d="M0,14.874L-11.899,14.874C-14.09,14.874 -15.865,13.098 -15.865,10.907L-15.865,0.992C-15.865,0.444 -15.421,0 -14.874,0L2.975,0C3.521,0 3.966,0.444 3.966,0.992L3.966,10.907C3.966,13.098 2.19,14.874 0,14.874Z" style="fill:none;fill-rule:nonzero;stroke:white;stroke-width:1.87px;"/>
            </g>
            <g transform="matrix(0,-1,-1,0,1038.31,1352.97)">
                <path d="M2.479,11.403L4.461,11.403C8.279,11.403 11.403,8.28 11.403,4.462C11.403,0.644 8.279,-2.479 4.461,-2.479L2.479,-2.479" style="fill:none;fill-rule:nonzero;stroke:white;stroke-width:1.87px;"/>
            </g>
            <g transform="matrix(0,-1,-1,0,1033.84,1354.46)">
                <ellipse cx="-1.983" cy="0" rx="1.983" ry="1.983" style="fill:none;stroke:white;stroke-width:1.87px;"/>
            </g>
            <g transform="matrix(0,1,1,0,1035.33,1359.91)">
                <path d="M-1.487,-1.487L1.487,-1.487" style="fill:none;fill-rule:nonzero;stroke:white;stroke-width:1.87px;"/>
            </g>
            <g transform="matrix(1,0,0,1,1020.95,1319.76)">
                <path d="M0,45.611L-10.907,45.611C-13.098,45.611 -14.873,43.835 -14.873,41.644L-14.873,3.965C-14.873,1.775 -13.098,0 -10.907,0L8.924,0C11.114,0 12.891,1.775 12.891,3.965L12.891,17.847" style="fill:none;fill-rule:nonzero;stroke:white;stroke-width:1.87px;"/>
            </g>
            <g transform="matrix(1,0,0,1,1006.08,1360.41)">
                <path d="M0,0L17.848,0" style="fill:none;fill-rule:nonzero;stroke:white;stroke-width:1.87px;"/>
            </g>
            <g transform="matrix(1,0,0,1,1006.08,1324.71)">
                <path d="M0,0L27.764,0" style="fill:none;fill-rule:nonzero;stroke:white;stroke-width:1.87px;"/>
            </g>
        </g>
    </g>
</svg>
