<?xml version="1.0" encoding="UTF-8" standalone="no"?>
<!DOCTYPE svg PUBLIC "-//W3C//DTD SVG 1.1//EN" "http://www.w3.org/Graphics/SVG/1.1/DTD/svg11.dtd">
<svg width="100%" height="100%" viewBox="0 0 65 65" version="1.1" xmlns="http://www.w3.org/2000/svg" xmlns:xlink="http://www.w3.org/1999/xlink" xml:space="preserve" xmlns:serif="http://www.serif.com/" style="fill-rule:evenodd;clip-rule:evenodd;stroke-linejoin:round;stroke-miterlimit:2;">
    <g transform="matrix(1,0,0,1,-2872,-736)">
        <g transform="matrix(1,0,0,1,1383.76,525.372)">
            <g id="ico-transacciones" transform="matrix(1,0,0,1,-2.0098,-2.80075)">
                <g transform="matrix(1.00433,0,0,1.00433,-1394.9,-525.215)">
                    <rect x="2873.46" y="735.827" width="63.724" height="63.724" style="fill:none;"/>
                </g>
                <g transform="matrix(1,0,0,1,1520.57,251.394)">
                    <path d="M0,14L-4.444,14C-6.956,14 -9,11.757 -9,9L-9,1C-9,0.447 -8.552,0 -8,0C-7.447,0 -7,0.447 -7,1L-7,9C-7,10.654 -5.854,12 -4.444,12L0,12C0.553,12 1,12.447 1,13C1,13.553 0.553,14 0,14" style="fill:rgb(0,30,98);fill-rule:nonzero;"/>
                </g>
                <g transform="matrix(1,0,0,1,1517.85,251.132)">
                    <path d="M0,7.262C-0.256,7.262 -0.512,7.164 -0.707,6.969L-5.278,2.398L-9.85,6.969C-10.24,7.36 -10.873,7.36 -11.264,6.969C-11.654,6.578 -11.654,5.946 -11.264,5.555L-5.985,0.277C-5.61,-0.098 -4.946,-0.098 -4.571,0.277L0.707,5.555C1.098,5.946 1.098,6.578 0.707,6.969C0.512,7.164 0.256,7.262 0,7.262" style="fill:rgb(0,30,98);fill-rule:nonzero;"/>
                </g>
                <g transform="matrix(1,0,0,1,1533.45,225.567)">
                    <path d="M0,14C-0.553,14 -1,13.553 -1,13L-1,5C-1,3.346 -2.146,2 -3.556,2L-8,2C-8.553,2 -9,1.553 -9,1C-9,0.447 -8.553,0 -8,0L-3.556,0C-1.044,0 1,2.243 1,5L1,13C1,13.553 0.552,14 0,14" style="fill:rgb(0,30,98);fill-rule:nonzero;"/>
                </g>
                <g transform="matrix(1,0,0,1,1533.45,232.47)">
                    <path d="M0,7.376C-0.266,7.376 -0.52,7.271 -0.707,7.083L-5.985,1.805C-6.376,1.414 -6.376,0.781 -5.985,0.391C-5.595,0 -4.962,0 -4.571,0.391L0,4.962L4.571,0.391C4.962,0 5.595,0 5.985,0.391C6.376,0.781 6.376,1.414 5.985,1.805L0.707,7.083C0.52,7.271 0.265,7.376 0,7.376" style="fill:rgb(0,30,98);fill-rule:nonzero;"/>
                </g>
                <g transform="matrix(1,0,0,1,1533.45,266.874)">
                    <path d="M0,-20.959C-5.778,-20.959 -10.479,-16.258 -10.479,-10.48C-10.479,-4.701 -5.778,0 0,0C5.778,0 10.479,-4.701 10.479,-10.48C10.479,-16.258 5.778,-20.959 0,-20.959M0,2C-6.881,2 -12.479,-3.599 -12.479,-10.48C-12.479,-17.36 -6.881,-22.959 0,-22.959C6.881,-22.959 12.479,-17.36 12.479,-10.48C12.479,-3.599 6.881,2 0,2" style="fill:rgb(0,30,98);fill-rule:nonzero;"/>
                </g>
                <g transform="matrix(1,0,0,1,1512.57,245.685)">
                    <path d="M0,-20.958C-5.778,-20.958 -10.479,-16.258 -10.479,-10.479C-10.479,-4.701 -5.778,0 0,0C5.778,0 10.479,-4.701 10.479,-10.479C10.479,-16.258 5.778,-20.958 0,-20.958M0,2C-6.881,2 -12.479,-3.599 -12.479,-10.479C-12.479,-17.36 -6.881,-22.958 0,-22.958C6.881,-22.958 12.479,-17.36 12.479,-10.479C12.479,-3.599 6.881,2 0,2" style="fill:rgb(0,30,98);fill-rule:nonzero;"/>
                </g>
            </g>
        </g>
    </g>
</svg>
