<?xml version="1.0" encoding="UTF-8" standalone="no"?>
<!DOCTYPE svg PUBLIC "-//W3C//DTD SVG 1.1//EN" "http://www.w3.org/Graphics/SVG/1.1/DTD/svg11.dtd">
<svg width="100%" height="100%" viewBox="0 0 109 109" version="1.1" xmlns="http://www.w3.org/2000/svg" xmlns:xlink="http://www.w3.org/1999/xlink" xml:space="preserve" xmlns:serif="http://www.serif.com/" style="fill-rule:evenodd;clip-rule:evenodd;stroke-linecap:round;stroke-linejoin:round;stroke-miterlimit:10;">
    <g transform="matrix(1,0,0,1,-627,-1277)">
        <g id="ico-feature-2" transform="matrix(1,0,0,1,-1.5001,-3.13252)">
            <g transform="matrix(0.999314,0,0,0.999314,381.572,-0.884597)">
                <rect x="247.098" y="1281.9" width="109.075" height="109.075" style="fill:none;"/>
            </g>
            <g transform="matrix(1,0,0,1,682.102,1302.25)">
                <path d="M0,64.605C0.581,64.815 1.215,64.815 1.796,64.605C10.957,61.3 27.648,50.252 27.648,40.546L27.648,10.791C27.648,9.255 26.452,8.001 24.946,7.932C12.596,7.373 5.629,3.057 2.649,0.629C1.619,-0.21 0.177,-0.21 -0.854,0.629C-3.833,3.057 -10.8,7.373 -23.15,7.932C-24.656,8.001 -25.852,9.255 -25.852,10.791L-25.852,40.546C-25.852,50.252 -9.161,61.3 0,64.605Z" style="fill:none;fill-rule:nonzero;stroke:white;stroke-width:2px;"/>
            </g>
            <g transform="matrix(1,0,0,1,698.329,1336.85)">
                <path d="M0,-4.431C0.104,-3.707 0.158,-2.968 0.158,-2.216C0.158,6.338 -6.776,13.271 -15.329,13.271C-23.882,13.271 -30.816,6.338 -30.816,-2.216C-30.816,-10.769 -23.882,-17.702 -15.329,-17.702C-12.202,-17.702 -9.291,-16.776 -6.856,-15.182" style="fill:none;fill-rule:nonzero;stroke:white;stroke-width:2px;"/>
            </g>
            <g transform="matrix(1,0,0,1,674.553,1331.82)">
                <path d="M0,0L7.743,7.743L23.23,-7.743" style="fill:none;fill-rule:nonzero;stroke:white;stroke-width:2px;"/>
            </g>
        </g>
    </g>
</svg>
