<?xml version="1.0" encoding="UTF-8" standalone="no"?>
<!DOCTYPE svg PUBLIC "-//W3C//DTD SVG 1.1//EN" "http://www.w3.org/Graphics/SVG/1.1/DTD/svg11.dtd">
<svg width="100%" height="100%" viewBox="0 0 109 109" version="1.1" xmlns="http://www.w3.org/2000/svg" xmlns:xlink="http://www.w3.org/1999/xlink" xml:space="preserve" xmlns:serif="http://www.serif.com/" style="fill-rule:evenodd;clip-rule:evenodd;stroke-linejoin:round;stroke-miterlimit:2;">
    <g transform="matrix(1,0,0,1,-251,-1277)">
        <g id="ico-feature-1" transform="matrix(1,0,0,1,0.6504,-3.13155)">
            <g transform="matrix(0.999314,0,0,0.999314,3.42131,-0.885572)">
                <rect x="247.098" y="1281.9" width="109.075" height="109.075" style="fill:none;"/>
            </g>
            <g transform="matrix(1,0,0,1,292.044,1337.34)">
                <path d="M0,28.85C-0.906,28.85 -1.811,28.67 -2.717,28.309C-2.717,28.309 -2.717,28.129 -2.898,28.129C-11.049,23.982 -17.932,17.13 -22.098,9.016C-22.098,8.835 -22.279,8.835 -22.279,8.835C-22.642,7.934 -22.823,7.033 -22.823,6.131C-22.823,2.705 -19.744,-0 -17.751,-0C-17.57,-0 -17.389,0.181 -17.208,0.181L-17.208,0.361C-17.208,0.361 -17.026,0.361 -17.026,0.541L-12.317,6.492C-12.317,6.672 -12.136,6.672 -12.136,6.672C-12.136,6.852 -11.955,7.033 -11.955,7.213C-11.955,7.393 -11.955,7.393 -12.136,7.574L-13.766,9.197C-14.31,9.737 -14.672,10.458 -14.672,11.36C-14.672,12.081 -14.31,12.802 -13.766,13.343C-11.955,15.868 -9.781,18.032 -7.245,19.834C-6.702,20.375 -5.978,20.736 -5.253,20.736C-4.528,20.736 -3.804,20.375 -3.26,19.834L-3.079,19.834L-1.449,18.212C-1.268,18.032 -1.268,18.032 -1.087,18.032C-0.906,18.032 -0.725,18.212 -0.543,18.212L-0.543,18.392L5.615,23.08C5.796,23.08 5.796,23.08 5.796,23.26L5.978,23.26C5.978,23.441 6.159,23.441 6.159,23.801L6.159,23.982C5.978,25.965 3.442,28.85 0,28.85M7.608,23.801C7.608,23.26 7.427,22.719 6.883,22.179C6.883,22.179 6.702,21.998 6.521,21.998L0.362,17.13C0,16.769 -0.543,16.589 -1.087,16.589C-1.63,16.589 -1.992,16.769 -2.354,16.95L-4.166,18.752C-4.347,19.114 -4.709,19.293 -5.253,19.293C-5.615,19.293 -6.158,18.933 -6.339,18.573C-8.694,16.95 -10.868,14.966 -12.679,12.442L-12.498,12.442C-12.86,12.261 -13.223,11.721 -13.223,11.36C-13.223,10.819 -13.042,10.458 -12.679,10.278L-11.049,8.475C-10.687,8.115 -10.506,7.753 -10.506,7.213C-10.506,6.672 -10.687,6.131 -11.23,5.77L-15.94,-0.36C-15.94,-0.541 -16.121,-0.721 -16.302,-0.721C-16.664,-1.261 -17.208,-1.442 -17.751,-1.442C-20.649,-1.442 -24.272,1.984 -24.272,6.131C-24.272,7.213 -24.091,8.294 -23.547,9.376C-19.2,18.032 -11.955,25.244 -3.26,29.572C-2.354,30.113 -1.087,30.292 0,30.292C4.166,30.292 7.608,26.687 7.608,23.801M-6.883,14.425C-6.158,14.425 -5.434,13.704 -5.434,12.983C-5.434,12.261 -6.158,11.54 -6.883,11.54C-7.607,11.54 -8.332,12.261 -8.332,12.983C-8.332,13.704 -7.607,14.425 -6.883,14.425M-6.883,7.213C-3.623,7.213 -1.087,9.737 -1.087,12.983C-1.087,13.343 -0.725,13.704 -0.362,13.704C0,13.704 0.362,13.343 0.362,12.983C0.362,9.016 -2.898,5.77 -6.883,5.77C-7.245,5.77 -7.607,6.131 -7.607,6.492C-7.607,6.852 -7.245,7.213 -6.883,7.213M-6.883,-0C0.362,-0 6.159,5.77 6.159,12.983C6.159,13.343 6.521,13.704 6.883,13.704C7.246,13.704 7.608,13.343 7.608,12.983C7.608,5.049 1.087,-1.442 -6.883,-1.442C-7.245,-1.442 -7.607,-1.082 -7.607,-0.721C-7.607,-0.36 -7.245,-0 -6.883,-0" style="fill:white;"/>
            </g>
            <g transform="matrix(1,0,0,1,313.929,1326.22)">
                <path d="M0,-13.991C-0.4,-14.191 -1,-14.591 -1.599,-14.791C-1.999,-14.991 -2.599,-14.991 -3.398,-14.991C-4.198,-14.991 -4.797,-14.791 -5.597,-14.591C-6.197,-14.391 -6.597,-13.991 -7.196,-13.592C-7.596,-13.191 -7.996,-12.592 -8.196,-11.992C-8.396,-11.193 -8.596,-10.594 -8.596,-9.794L-8.596,-9.594L-6.796,-9.594L-6.796,-9.794C-6.796,-10.393 -6.597,-10.793 -6.597,-11.193C-6.396,-11.793 -6.197,-11.992 -5.997,-12.392C-5.597,-12.792 -5.197,-12.992 -4.797,-13.191C-4.398,-13.391 -3.998,-13.391 -3.398,-13.391C-2.999,-13.391 -2.599,-13.391 -2.199,-13.191C-1.799,-13.191 -1.599,-12.992 -1.2,-12.792C-1,-12.392 -0.8,-12.192 -0.6,-11.793C-0.4,-11.593 -0.4,-11.193 -0.4,-10.793C-0.4,-10.193 -0.6,-9.794 -0.8,-9.393C-1,-8.994 -1.399,-8.595 -1.799,-8.194C-2.199,-7.795 -2.599,-7.395 -2.999,-6.995C-3.398,-6.795 -3.598,-6.395 -3.798,-5.996C-3.998,-5.595 -4.198,-5.196 -4.198,-4.797C-4.398,-4.197 -4.398,-3.596 -4.398,-2.997L-4.398,-2.798L-2.599,-2.798L-2.599,-4.596C-2.399,-4.797 -2.399,-5.196 -2.199,-5.396C-2.199,-5.595 -1.999,-5.796 -1.799,-5.996C-1.399,-6.195 -1,-6.595 -0.6,-6.995C0,-7.595 0.399,-8.194 0.799,-8.794C1.199,-9.194 1.399,-9.993 1.399,-10.793C1.399,-11.593 1.199,-11.992 0.999,-12.592C0.799,-13.191 0.399,-13.592 0,-13.991M-4.598,1L-2.399,1L-2.399,-1.599L-4.598,-1.599L-4.598,1ZM-3.598,8.996C-12.394,8.996 -19.589,1.8 -19.589,-6.995C-19.589,-15.79 -12.394,-22.986 -3.598,-22.986C5.197,-22.986 12.393,-15.79 12.393,-6.995C12.393,1.8 5.197,8.996 -3.598,8.996M-3.598,-24.586C-13.393,-24.586 -21.188,-16.79 -21.188,-6.995C-21.188,2.8 -13.393,10.595 -3.598,10.595C6.196,10.595 13.992,2.8 13.992,-6.995C13.992,-16.79 6.196,-24.586 -3.598,-24.586" style="fill:white;"/>
            </g>
            <g transform="matrix(1,0,0,1,335.362,1359.48)">
                <path d="M0,-10.943L0,-16.415L0.547,-16.415L5.471,-10.943L0,-10.943ZM5.471,4.376C5.471,4.923 4.924,5.471 4.377,5.471L-10.943,5.471C-11.49,5.471 -12.037,4.923 -12.037,4.376L-12.037,-15.32C-12.037,-15.868 -11.49,-16.415 -10.943,-16.415L-1.094,-16.415L-1.094,-10.943C-1.094,-10.396 -0.547,-9.849 0,-9.849L5.471,-9.849L5.471,4.376ZM1.094,-17.508L-10.943,-17.508C-12.174,-17.508 -13.131,-16.551 -13.131,-15.32L-13.131,4.376C-13.131,5.608 -12.174,6.565 -10.943,6.565L4.377,6.565C5.608,6.565 6.565,5.608 6.565,4.376L6.565,-11.49L1.094,-17.508ZM-8.754,-7.661C-8.754,-7.387 -8.48,-7.113 -8.207,-7.113L1.642,-7.113C1.915,-7.113 2.188,-7.387 2.188,-7.661C2.188,-7.934 1.915,-8.208 1.642,-8.208L-8.207,-8.208C-8.48,-8.208 -8.754,-7.934 -8.754,-7.661M1.642,-3.831L-8.207,-3.831C-8.48,-3.831 -8.754,-3.557 -8.754,-3.284C-8.754,-3.009 -8.48,-2.736 -8.207,-2.736L1.642,-2.736C1.915,-2.736 2.188,-3.009 2.188,-3.284C2.188,-3.557 1.915,-3.831 1.642,-3.831M-8.207,-11.49L-5.471,-11.49C-5.198,-11.49 -4.924,-11.764 -4.924,-12.038C-4.924,-12.311 -5.198,-12.585 -5.471,-12.585L-8.207,-12.585C-8.48,-12.585 -8.754,-12.311 -8.754,-12.038C-8.754,-11.764 -8.48,-11.49 -8.207,-11.49M-1.641,0.546L-8.207,0.546C-8.48,0.546 -8.754,0.82 -8.754,1.094C-8.754,1.368 -8.48,1.641 -8.207,1.641L-1.641,1.641C-1.368,1.641 -1.094,1.368 -1.094,1.094C-1.094,0.82 -1.368,0.546 -1.641,0.546" style="fill:white;"/>
            </g>
        </g>
    </g>
</svg>
