<?xml version="1.0" encoding="UTF-8" standalone="no"?>
<!DOCTYPE svg PUBLIC "-//W3C//DTD SVG 1.1//EN" "http://www.w3.org/Graphics/SVG/1.1/DTD/svg11.dtd">
<svg width="100%" height="100%" viewBox="0 0 106 32" version="1.1" xmlns="http://www.w3.org/2000/svg" xmlns:xlink="http://www.w3.org/1999/xlink" xml:space="preserve" xmlns:serif="http://www.serif.com/" style="fill-rule:evenodd;clip-rule:evenodd;stroke-miterlimit:10;">
    <g transform="matrix(1,0,0,1,-240,-1864)">
        <g id="img-googlePlay" transform="matrix(1,0,0,1,-0.164,0.5156)">
            <g transform="matrix(1,0,0,1,341.565,1863.48)">
                <path d="M0,31.023L-96.95,31.023C-99.083,31.023 -100.828,29.278 -100.828,27.145L-100.828,3.877C-100.828,1.745 -99.083,0 -96.95,0L0,0C2.133,0 3.878,1.745 3.878,3.877L3.878,27.145C3.878,29.278 2.133,31.023 0,31.023" style="fill:white;fill-rule:nonzero;"/>
            </g>
            <g transform="matrix(1,0,0,1,341.565,1894.51)">
                <path d="M0,-31.024L-96.95,-31.024C-99.083,-31.024 -100.828,-29.279 -100.828,-27.146L-100.828,-3.878C-100.828,-1.745 -99.083,0 -96.95,0L0,0C2.133,0 3.878,-1.745 3.878,-3.878L3.878,-27.146C3.878,-29.279 2.133,-31.024 0,-31.024M0,-30.404C1.796,-30.404 3.258,-28.942 3.258,-27.146L3.258,-3.878C3.258,-2.082 1.796,-0.621 0,-0.621L-96.95,-0.621C-98.746,-0.621 -100.208,-2.082 -100.208,-3.878L-100.208,-27.146C-100.208,-28.942 -98.746,-30.404 -96.95,-30.404L0,-30.404" style="fill:rgb(166,166,166);fill-rule:nonzero;"/>
            </g>
            <g transform="matrix(1,0,0,1,0,1595.62)">
                <path d="M323.676,291.132L325.123,291.132L325.123,281.437L323.676,281.437L323.676,291.132ZM336.712,284.929L335.053,289.133L335.003,289.133L333.282,284.929L331.722,284.929L334.304,290.804L332.833,294.072L334.342,294.072L338.321,284.929L336.712,284.929ZM328.504,290.031C328.03,290.031 327.369,289.794 327.369,289.207C327.369,288.459 328.192,288.172 328.903,288.172C329.539,288.172 329.839,288.31 330.226,288.496C330.113,289.395 329.34,290.031 328.504,290.031M328.679,284.717C327.631,284.717 326.545,285.179 326.096,286.201L327.381,286.737C327.656,286.201 328.167,286.026 328.704,286.026C329.452,286.026 330.213,286.476 330.226,287.275L330.226,287.374C329.963,287.224 329.402,287 328.716,287C327.332,287 325.922,287.761 325.922,289.183C325.922,290.48 327.057,291.316 328.329,291.316C329.302,291.316 329.839,290.879 330.175,290.367L330.226,290.367L330.226,291.116L331.623,291.116L331.623,287.399C331.623,285.678 330.337,284.717 328.679,284.717M319.734,286.109L317.676,286.109L317.676,282.785L319.734,282.785C320.816,282.785 321.431,283.682 321.431,284.447C321.431,285.199 320.816,286.109 319.734,286.109M319.697,281.437L316.229,281.437L316.229,291.132L317.676,291.132L317.676,287.459L319.697,287.459C321.301,287.459 322.878,286.297 322.878,284.447C322.878,282.598 321.301,281.437 319.697,281.437M300.787,290.032C299.788,290.032 298.95,289.195 298.95,288.046C298.95,286.884 299.788,286.034 300.787,286.034C301.774,286.034 302.549,286.884 302.549,288.046C302.549,289.195 301.774,290.032 300.787,290.032M302.449,285.472L302.399,285.472C302.074,285.085 301.45,284.734 300.662,284.734C299.013,284.734 297.501,286.185 297.501,288.046C297.501,289.896 299.013,291.332 300.662,291.332C301.45,291.332 302.074,290.983 302.399,290.582L302.449,290.582L302.449,291.058C302.449,292.319 301.774,292.994 300.687,292.994C299.8,292.994 299.25,292.357 299.025,291.819L297.763,292.345C298.125,293.219 299.088,294.294 300.687,294.294C302.387,294.294 303.824,293.294 303.824,290.858L303.824,284.935L302.449,284.935L302.449,285.472ZM304.823,291.132L306.272,291.132L306.272,281.436L304.823,281.436L304.823,291.132ZM308.409,287.934C308.372,286.659 309.396,286.009 310.134,286.009C310.708,286.009 311.196,286.297 311.358,286.709L308.409,287.934ZM312.908,286.834C312.633,286.097 311.795,284.734 310.083,284.734C308.384,284.734 306.973,286.071 306.973,288.033C306.973,289.883 308.372,291.332 310.246,291.332C311.758,291.332 312.633,290.407 312.995,289.87L311.871,289.12C311.496,289.67 310.983,290.032 310.246,290.032C309.509,290.032 308.984,289.695 308.647,289.033L313.058,287.209L312.908,286.834ZM277.767,285.747L277.767,287.147L281.115,287.147C281.015,287.934 280.753,288.508 280.353,288.908C279.866,289.396 279.104,289.933 277.767,289.933C275.705,289.933 274.093,288.271 274.093,286.209C274.093,284.148 275.705,282.485 277.767,282.485C278.879,282.485 279.691,282.923 280.291,283.485L281.278,282.498C280.44,281.698 279.329,281.086 277.767,281.086C274.942,281.086 272.568,283.385 272.568,286.209C272.568,289.033 274.942,291.332 277.767,291.332C279.291,291.332 280.44,290.832 281.34,289.896C282.265,288.971 282.552,287.671 282.552,286.621C282.552,286.297 282.527,285.997 282.477,285.747L277.767,285.747ZM286.359,290.032C285.359,290.032 284.498,289.208 284.498,288.033C284.498,286.847 285.359,286.034 286.359,286.034C287.359,286.034 288.221,286.847 288.221,288.033C288.221,289.208 287.359,290.032 286.359,290.032M286.359,284.734C284.535,284.734 283.048,286.122 283.048,288.033C283.048,289.933 284.535,291.332 286.359,291.332C288.184,291.332 289.67,289.933 289.67,288.033C289.67,286.122 288.184,284.734 286.359,284.734M293.583,290.032C292.583,290.032 291.721,289.208 291.721,288.033C291.721,286.847 292.583,286.034 293.583,286.034C294.583,286.034 295.444,286.847 295.444,288.033C295.444,289.208 294.583,290.032 293.583,290.032M293.583,284.734C291.758,284.734 290.271,286.122 290.271,288.033C290.271,289.933 291.758,291.332 293.583,291.332C295.407,291.332 296.894,289.933 296.894,288.033C296.894,286.122 295.407,284.734 293.583,284.734" style="fill-rule:nonzero;"/>
            </g>
            <g transform="matrix(-13.0164,13.0164,-13.0164,-13.0164,257.645,1870.24)">
                <path d="M0.304,0.373C0.322,0.373 0.341,0.364 0.359,0.345L1.018,-0.313C1.037,-0.332 1.046,-0.351 1.046,-0.369L1.046,-0.373L0.308,-0.373L0.299,-0.365L0.299,0.373L0.304,0.373Z" style="fill:url(#_Linear1);fill-rule:nonzero;"/>
            </g>
            <g transform="matrix(-18.7671,0,0,-18.7671,266.978,1879)">
                <path d="M0.452,0.006L0.452,-0.006L0.281,-0.177L0.277,-0.175L0.075,-0.06C0.017,-0.027 0.017,0.027 0.075,0.06L0.277,0.174L0.281,0.177L0.452,0.006Z" style="fill:url(#_Linear2);fill-rule:nonzero;"/>
            </g>
            <g transform="matrix(-11.0501,-22.3838,22.3838,-11.0501,258.236,1891.43)">
                <path d="M0.266,-0.289C0.246,-0.283 0.234,-0.262 0.236,-0.232L0.266,0.289L0.442,0.23L0.266,-0.289Z" style="fill:url(#_Linear3);fill-rule:nonzero;"/>
            </g>
            <g transform="matrix(7.88206,7.88206,-7.88206,7.88206,246.396,1863.62)">
                <path d="M0.517,0.208L1.743,0.208L1.743,-0.208L0.616,0.102C0.585,0.111 0.561,0.124 0.544,0.141C0.525,0.16 0.516,0.183 0.517,0.208Z" style="fill:url(#_Linear4);fill-rule:nonzero;"/>
            </g>
            <g opacity="0.2">
                <g transform="matrix(1,0,0,1,261.7,1889.07)">
                    <path d="M0,-6.868L-11.258,-0.472C-11.888,-0.114 -12.451,-0.138 -12.812,-0.464L-12.87,-0.405L-12.813,-0.349L-12.812,-0.35C-12.451,-0.024 -11.888,0 -11.258,-0.358L0.072,-6.796L0,-6.868Z" style="fill-rule:nonzero;"/>
                </g>
            </g>
            <g opacity="0.12">
                <g transform="matrix(1,0,0,1,248.83,1887.57)">
                    <path d="M0,0.977C-0.226,0.738 -0.359,0.367 -0.359,-0.113L-0.359,0C-0.359,0.481 -0.226,0.851 0,1.09L0.058,1.032L0,0.977Z" style="fill-rule:nonzero;"/>
                </g>
            </g>
            <g opacity="0.12">
                <g transform="matrix(1,0,0,1,265.567,1881.27)">
                    <path d="M0,-1.263L-3.867,0.934L-3.794,1.007L0,-1.15C0.542,-1.458 0.813,-1.864 0.813,-2.27C0.768,-1.903 0.492,-1.542 0,-1.263" style="fill-rule:nonzero;"/>
                </g>
            </g>
            <g opacity="0.25">
                <g transform="matrix(1,0,0,1,250.442,1878.27)">
                    <path d="M0,-8.872L15.125,-0.278C15.617,0.001 15.893,0.36 15.938,0.729C15.938,0.322 15.667,-0.084 15.125,-0.392L0,-8.985C-1.084,-9.601 -1.971,-9.09 -1.971,-7.848L-1.971,-7.734C-1.971,-8.976 -1.084,-9.487 0,-8.872" style="fill:white;fill-rule:nonzero;"/>
                </g>
            </g>
            <g transform="matrix(1,0,0,1,273.351,1869.49)">
                <path d="M0,3.51L0.826,3.51C1.363,3.51 1.788,3.357 2.103,3.048C2.417,2.74 2.574,2.31 2.574,1.755C2.574,1.204 2.417,0.775 2.103,0.465C1.788,0.156 1.363,0 0.826,0L0,0L0,3.51ZM-0.598,4.082L-0.598,-0.572L0.826,-0.572C1.541,-0.572 2.112,-0.356 2.542,0.075C2.971,0.506 3.185,1.066 3.185,1.755C3.185,2.444 2.971,3.004 2.542,3.435C2.112,3.866 1.541,4.082 0.826,4.082L-0.598,4.082Z" style="fill-rule:nonzero;stroke:white;stroke-width:0.16px;"/>
            </g>
            <g transform="matrix(1,0,0,1,0,1571.48)">
                <rect x="277.375" y="297.433" width="0.598" height="4.654" style="stroke:white;stroke-width:0.16px;"/>
            </g>
            <g transform="matrix(1,0,0,1,280.351,1868.81)">
                <path d="M0,4.861C-0.338,4.861 -0.668,4.751 -0.991,4.53C-1.314,4.309 -1.525,3.999 -1.625,3.6L-1.079,3.38C-1.013,3.635 -0.881,3.85 -0.679,4.026C-0.477,4.201 -0.251,4.289 0,4.289C0.26,4.289 0.482,4.221 0.667,4.085C0.851,3.948 0.942,3.762 0.942,3.529C0.942,3.269 0.851,3.068 0.667,2.927C0.482,2.787 0.191,2.656 -0.208,2.534C-0.62,2.405 -0.932,2.236 -1.144,2.03C-1.355,1.825 -1.462,1.561 -1.462,1.241C-1.462,0.907 -1.33,0.617 -1.065,0.37C-0.801,0.124 -0.457,0 -0.032,0C0.362,0 0.683,0.098 0.93,0.296C1.176,0.493 1.337,0.708 1.411,0.942L0.865,1.17C0.826,1.022 0.729,0.885 0.576,0.759C0.422,0.634 0.224,0.572 -0.02,0.572C-0.249,0.572 -0.445,0.635 -0.607,0.763C-0.77,0.891 -0.851,1.05 -0.851,1.241C-0.851,1.414 -0.776,1.56 -0.627,1.679C-0.477,1.798 -0.257,1.906 0.033,2.002C0.262,2.075 0.454,2.146 0.608,2.215C0.762,2.285 0.918,2.378 1.076,2.492C1.234,2.607 1.353,2.75 1.433,2.922C1.513,3.092 1.554,3.291 1.554,3.515C1.554,3.741 1.507,3.942 1.414,4.12C1.321,4.299 1.197,4.439 1.043,4.543C0.889,4.646 0.724,4.725 0.546,4.78C0.368,4.834 0.187,4.861 0,4.861" style="fill-rule:nonzero;"/>
            </g>
            <g transform="matrix(1,0,0,1,280.351,1868.81)">
                <path d="M0,4.861C-0.338,4.861 -0.668,4.751 -0.991,4.53C-1.314,4.309 -1.525,3.999 -1.625,3.6L-1.079,3.38C-1.013,3.635 -0.881,3.85 -0.679,4.026C-0.477,4.201 -0.251,4.289 0,4.289C0.26,4.289 0.482,4.221 0.667,4.085C0.851,3.948 0.942,3.762 0.942,3.529C0.942,3.269 0.851,3.068 0.667,2.927C0.482,2.787 0.191,2.656 -0.208,2.534C-0.62,2.405 -0.932,2.236 -1.144,2.03C-1.355,1.825 -1.462,1.561 -1.462,1.241C-1.462,0.907 -1.33,0.617 -1.065,0.37C-0.801,0.124 -0.457,0 -0.032,0C0.362,0 0.683,0.098 0.93,0.296C1.176,0.493 1.337,0.708 1.411,0.942L0.865,1.17C0.826,1.022 0.729,0.885 0.576,0.759C0.422,0.634 0.224,0.572 -0.02,0.572C-0.249,0.572 -0.445,0.635 -0.607,0.763C-0.77,0.891 -0.851,1.05 -0.851,1.241C-0.851,1.414 -0.776,1.56 -0.627,1.679C-0.477,1.798 -0.257,1.906 0.033,2.002C0.262,2.075 0.454,2.146 0.608,2.215C0.762,2.285 0.918,2.378 1.076,2.492C1.234,2.607 1.353,2.75 1.433,2.922C1.513,3.092 1.554,3.291 1.554,3.515C1.554,3.741 1.507,3.942 1.414,4.12C1.321,4.299 1.197,4.439 1.043,4.543C0.889,4.646 0.724,4.725 0.546,4.78C0.368,4.834 0.187,4.861 0,4.861Z" style="fill:none;fill-rule:nonzero;stroke:white;stroke-width:0.16px;"/>
            </g>
            <g transform="matrix(1,0,0,1,283.36,1871.37)">
                <path d="M0,-0.26L1.001,-0.26C1.253,-0.26 1.455,-0.345 1.606,-0.513C1.757,-0.683 1.833,-0.868 1.833,-1.072C1.833,-1.276 1.757,-1.462 1.606,-1.631C1.455,-1.801 1.253,-1.885 1.001,-1.885L0,-1.885L0,-0.26ZM0,2.197L-0.598,2.197L-0.598,-2.457L0.989,-2.457C1.382,-2.457 1.724,-2.326 2.012,-2.064C2.3,-1.802 2.444,-1.471 2.444,-1.072C2.444,-0.674 2.3,-0.344 2.012,-0.081C1.724,0.18 1.382,0.312 0.989,0.312L0,0.312L0,2.197Z" style="fill-rule:nonzero;stroke:white;stroke-width:0.16px;"/>
            </g>
            <g transform="matrix(1,0,0,1,287.393,1869.9)">
                <path d="M0,2.672C0.345,3.021 0.766,3.194 1.264,3.194C1.762,3.194 2.184,3.021 2.528,2.672C2.873,2.323 3.045,1.878 3.045,1.336C3.045,0.794 2.873,0.349 2.528,0C2.184,-0.349 1.762,-0.522 1.264,-0.522C0.766,-0.522 0.345,-0.349 0,0C-0.344,0.349 -0.517,0.794 -0.517,1.336C-0.517,1.878 -0.344,2.323 0,2.672M2.971,3.062C2.513,3.531 1.944,3.767 1.264,3.767C0.584,3.767 0.015,3.531 -0.442,3.062C-0.899,2.592 -1.127,2.017 -1.127,1.336C-1.127,0.655 -0.899,0.08 -0.442,-0.39C0.015,-0.86 0.584,-1.095 1.264,-1.095C1.94,-1.095 2.508,-0.858 2.967,-0.387C3.426,0.086 3.656,0.66 3.656,1.336C3.656,2.017 3.427,2.592 2.971,3.062" style="fill-rule:nonzero;"/>
            </g>
            <g transform="matrix(1,0,0,1,287.393,1869.9)">
                <path d="M0,2.672C0.345,3.021 0.766,3.194 1.264,3.194C1.762,3.194 2.184,3.021 2.528,2.672C2.873,2.323 3.045,1.878 3.045,1.336C3.045,0.794 2.873,0.349 2.528,0C2.184,-0.349 1.762,-0.522 1.264,-0.522C0.766,-0.522 0.345,-0.349 0,0C-0.344,0.349 -0.517,0.794 -0.517,1.336C-0.517,1.878 -0.344,2.323 0,2.672ZM2.971,3.062C2.513,3.531 1.944,3.767 1.264,3.767C0.584,3.767 0.015,3.531 -0.442,3.062C-0.899,2.592 -1.127,2.017 -1.127,1.336C-1.127,0.655 -0.899,0.08 -0.442,-0.39C0.015,-0.86 0.584,-1.095 1.264,-1.095C1.94,-1.095 2.508,-0.858 2.967,-0.387C3.426,0.086 3.656,0.66 3.656,1.336C3.656,2.017 3.427,2.592 2.971,3.062Z" style="fill:none;fill-rule:nonzero;stroke:white;stroke-width:0.16px;"/>
            </g>
            <g transform="matrix(1,0,0,1,291.888,1868.91)">
                <path d="M0,4.654L0,0L0.728,0L2.99,3.62L3.016,3.62L2.99,2.723L2.99,0L3.588,0L3.588,4.654L2.964,4.654L0.598,0.858L0.572,0.858L0.598,1.755L0.598,4.654L0,4.654Z" style="fill-rule:nonzero;stroke:white;stroke-width:0.16px;"/>
            </g>
            <g transform="matrix(1,0,0,1,0,1571.48)">
                <rect x="296.542" y="297.433" width="0.598" height="4.654" style="stroke:white;stroke-width:0.16px;"/>
            </g>
            <g transform="matrix(1,0,0,1,298.803,1869.49)">
                <path d="M0,3.51L1.203,3.51C1.432,3.51 1.619,3.43 1.762,3.269C1.905,3.11 1.976,2.934 1.976,2.742C1.976,2.552 1.903,2.378 1.755,2.22C1.608,2.062 1.415,1.983 1.176,1.983L0,1.983L0,3.51ZM0,1.423L1.085,1.423C1.311,1.423 1.492,1.349 1.628,1.199C1.765,1.05 1.833,0.886 1.833,0.709C1.833,0.531 1.767,0.368 1.634,0.221C1.503,0.074 1.329,0 1.112,0L0,0L0,1.423ZM-0.598,4.082L-0.598,-0.572L1.085,-0.572C1.45,-0.572 1.765,-0.451 2.031,-0.211C2.298,0.03 2.431,0.332 2.431,0.696C2.431,0.916 2.374,1.112 2.259,1.281C2.145,1.449 1.991,1.577 1.8,1.664L1.8,1.69C2.03,1.768 2.219,1.903 2.366,2.093C2.513,2.283 2.587,2.505 2.587,2.756C2.587,3.137 2.447,3.453 2.168,3.704C1.888,3.956 1.558,4.082 1.176,4.082L-0.598,4.082Z" style="fill-rule:nonzero;stroke:white;stroke-width:0.16px;"/>
            </g>
            <g transform="matrix(1,0,0,1,302.196,1868.91)">
                <path d="M0,4.654L0,0L0.598,0L0.598,4.082L2.613,4.082L2.613,4.654L0,4.654Z" style="fill-rule:nonzero;stroke:white;stroke-width:0.16px;"/>
            </g>
            <g transform="matrix(1,0,0,1,308.28,1873)">
                <path d="M0,-3.51L-2.12,-3.51L-2.12,-2.034L-0.208,-2.034L-0.208,-1.476L-2.12,-1.476L-2.12,0L0,0L0,0.572L-2.717,0.572L-2.717,-4.082L0,-4.082L0,-3.51Z" style="fill-rule:nonzero;stroke:white;stroke-width:0.16px;"/>
            </g>
            <g transform="matrix(1,0,0,1,313.492,1873)">
                <path d="M0,-3.51L-2.119,-3.51L-2.119,-2.034L-0.208,-2.034L-0.208,-1.476L-2.119,-1.476L-2.119,0L0,0L0,0.572L-2.717,0.572L-2.717,-4.082L0,-4.082L0,-3.51Z" style="fill-rule:nonzero;stroke:white;stroke-width:0.16px;"/>
            </g>
            <g transform="matrix(1,0,0,1,314.428,1868.91)">
                <path d="M0,4.654L0,0L0.728,0L2.989,3.62L3.015,3.62L2.989,2.723L2.989,0L3.588,0L3.588,4.654L2.964,4.654L0.598,0.858L0.572,0.858L0.598,1.755L0.598,4.654L0,4.654Z" style="fill-rule:nonzero;stroke:white;stroke-width:0.16px;"/>
            </g>
        </g>
    </g>
    <defs>
        <linearGradient id="_Linear1" x1="0" y1="0" x2="1" y2="0" gradientUnits="userSpaceOnUse" gradientTransform="matrix(1,0,0,-1,0,1.15162e-05)"><stop offset="0" style="stop-color:rgb(0,160,255);stop-opacity:1"/><stop offset="0.01" style="stop-color:rgb(0,161,255);stop-opacity:1"/><stop offset="0.26" style="stop-color:rgb(0,190,255);stop-opacity:1"/><stop offset="0.51" style="stop-color:rgb(0,210,255);stop-opacity:1"/><stop offset="0.76" style="stop-color:rgb(0,223,255);stop-opacity:1"/><stop offset="1" style="stop-color:rgb(0,227,255);stop-opacity:1"/></linearGradient>
        <linearGradient id="_Linear2" x1="0" y1="0" x2="1" y2="0" gradientUnits="userSpaceOnUse" gradientTransform="matrix(1,0,0,-1,0,-9.00511e-05)"><stop offset="0" style="stop-color:rgb(255,224,0);stop-opacity:1"/><stop offset="0.41" style="stop-color:rgb(255,189,0);stop-opacity:1"/><stop offset="0.78" style="stop-color:rgb(255,165,0);stop-opacity:1"/><stop offset="1" style="stop-color:rgb(255,156,0);stop-opacity:1"/></linearGradient>
        <linearGradient id="_Linear3" x1="0" y1="0" x2="1" y2="0" gradientUnits="userSpaceOnUse" gradientTransform="matrix(-0.321044,-0.947064,-0.947064,0.321044,0.351482,0.25198)"><stop offset="0" style="stop-color:rgb(255,58,68);stop-opacity:1"/><stop offset="1" style="stop-color:rgb(195,17,98);stop-opacity:1"/></linearGradient>
        <linearGradient id="_Linear4" x1="0" y1="0" x2="1" y2="0" gradientUnits="userSpaceOnUse" gradientTransform="matrix(1,0,0,-1,0,-5.34378e-05)"><stop offset="0" style="stop-color:rgb(50,160,113);stop-opacity:1"/><stop offset="0.07" style="stop-color:rgb(45,167,113);stop-opacity:1"/><stop offset="0.48" style="stop-color:rgb(21,207,116);stop-opacity:1"/><stop offset="0.8" style="stop-color:rgb(6,231,117);stop-opacity:1"/><stop offset="1" style="stop-color:rgb(0,240,118);stop-opacity:1"/></linearGradient>
    </defs>
</svg>
