<?xml version="1.0" encoding="UTF-8" standalone="no"?>
<!DOCTYPE svg PUBLIC "-//W3C//DTD SVG 1.1//EN" "http://www.w3.org/Graphics/SVG/1.1/DTD/svg11.dtd">
<svg width="100%" height="100%" viewBox="0 0 117 35" version="1.1" xmlns="http://www.w3.org/2000/svg" xmlns:xlink="http://www.w3.org/1999/xlink" xml:space="preserve" xmlns:serif="http://www.serif.com/" style="fill-rule:evenodd;clip-rule:evenodd;stroke-miterlimit:10;">
    <g transform="matrix(1,0,0,1,-954,-44)">
        <g id="btn-google-dark" transform="matrix(1,0,0,1,-0.1435,0.3503)">
            <g transform="matrix(1,0,0,1,1066.42,43.6497)">
                <path d="M0,34.321L-107.251,34.321C-109.611,34.321 -111.541,32.39 -111.541,30.031L-111.541,4.29C-111.541,1.931 -109.611,0 -107.251,0L0,0C2.359,0 4.29,1.931 4.29,4.29L4.29,30.031C4.29,32.39 2.359,34.321 0,34.321" style="fill-rule:nonzero;"/>
            </g>
            <g transform="matrix(1,0,0,1,1066.42,77.9704)">
                <path d="M0,-34.32L-107.251,-34.32C-109.611,-34.32 -111.541,-32.39 -111.541,-30.03L-111.541,-4.29C-111.541,-1.93 -109.611,0 -107.251,0L0,0C2.359,0 4.29,-1.93 4.29,-4.29L4.29,-30.03C4.29,-32.39 2.359,-34.32 0,-34.32M0,-33.634C1.987,-33.634 3.604,-32.017 3.604,-30.03L3.604,-4.29C3.604,-2.303 1.987,-0.686 0,-0.686L-107.251,-0.686C-109.238,-0.686 -110.855,-2.303 -110.855,-4.29L-110.855,-30.03C-110.855,-32.017 -109.238,-33.634 -107.251,-33.634L0,-33.634" style="fill:rgb(166,166,166);fill-rule:nonzero;"/>
            </g>
            <g transform="matrix(1,0,0,1,0,-1746.84)">
                <path d="M1046.64,1816.23L1048.24,1816.23L1048.24,1805.5L1046.64,1805.5L1046.64,1816.23ZM1061.06,1809.36L1059.22,1814.01L1059.17,1814.01L1057.26,1809.36L1055.54,1809.36L1058.39,1815.86L1056.77,1819.48L1058.43,1819.48L1062.84,1809.36L1061.06,1809.36ZM1051.98,1815.01C1051.45,1815.01 1050.72,1814.75 1050.72,1814.1C1050.72,1813.27 1051.63,1812.95 1052.42,1812.95C1053.12,1812.95 1053.45,1813.1 1053.88,1813.31C1053.76,1814.3 1052.9,1815.01 1051.98,1815.01M1052.17,1809.13C1051.01,1809.13 1049.81,1809.64 1049.31,1810.77L1050.73,1811.36C1051.04,1810.77 1051.6,1810.58 1052.2,1810.58C1053.02,1810.58 1053.87,1811.07 1053.88,1811.96L1053.88,1812.07C1053.59,1811.9 1052.97,1811.65 1052.21,1811.65C1050.68,1811.65 1049.12,1812.5 1049.12,1814.07C1049.12,1815.5 1050.38,1816.43 1051.78,1816.43C1052.86,1816.43 1053.45,1815.94 1053.83,1815.38L1053.88,1815.38L1053.88,1816.21L1055.43,1816.21L1055.43,1812.1C1055.43,1810.19 1054.01,1809.13 1052.17,1809.13M1042.28,1810.67L1040,1810.67L1040,1806.99L1042.28,1806.99C1043.47,1806.99 1044.15,1807.98 1044.15,1808.83C1044.15,1809.66 1043.47,1810.67 1042.28,1810.67M1042.23,1805.5L1038.4,1805.5L1038.4,1816.23L1040,1816.23L1040,1812.16L1042.23,1812.16C1044.01,1812.16 1045.75,1810.88 1045.75,1808.83C1045.75,1806.78 1044.01,1805.5 1042.23,1805.5M1021.31,1815.01C1020.21,1815.01 1019.28,1814.08 1019.28,1812.81C1019.28,1811.53 1020.21,1810.59 1021.31,1810.59C1022.41,1810.59 1023.26,1811.53 1023.26,1812.81C1023.26,1814.08 1022.41,1815.01 1021.31,1815.01M1023.15,1809.96L1023.1,1809.96C1022.74,1809.54 1022.05,1809.15 1021.18,1809.15C1019.35,1809.15 1017.68,1810.75 1017.68,1812.81C1017.68,1814.86 1019.35,1816.45 1021.18,1816.45C1022.05,1816.45 1022.74,1816.06 1023.1,1815.62L1023.15,1815.62L1023.15,1816.14C1023.15,1817.54 1022.41,1818.29 1021.2,1818.29C1020.22,1818.29 1019.61,1817.58 1019.37,1816.99L1017.97,1817.57C1018.37,1818.53 1019.44,1819.72 1021.2,1819.72C1023.08,1819.72 1024.67,1818.62 1024.67,1815.92L1024.67,1809.37L1023.15,1809.37L1023.15,1809.96ZM1025.78,1816.23L1027.38,1816.23L1027.38,1805.5L1025.78,1805.5L1025.78,1816.23ZM1029.75,1812.69C1029.7,1811.28 1030.84,1810.56 1031.65,1810.56C1032.29,1810.56 1032.83,1810.88 1033.01,1811.33L1029.75,1812.69ZM1034.72,1811.47C1034.42,1810.65 1033.49,1809.15 1031.6,1809.15C1029.72,1809.15 1028.16,1810.63 1028.16,1812.8C1028.16,1814.84 1029.7,1816.45 1031.78,1816.45C1033.45,1816.45 1034.42,1815.42 1034.82,1814.83L1033.58,1814C1033.16,1814.61 1032.59,1815.01 1031.78,1815.01C1030.96,1815.01 1030.38,1814.64 1030.01,1813.9L1034.89,1811.88L1034.72,1811.47ZM995.848,1810.27L995.848,1811.82L999.553,1811.82C999.441,1812.69 999.151,1813.32 998.709,1813.77C998.17,1814.3 997.327,1814.9 995.848,1814.9C993.567,1814.9 991.784,1813.06 991.784,1810.78C991.784,1808.5 993.567,1806.66 995.848,1806.66C997.078,1806.66 997.977,1807.14 998.64,1807.77L999.732,1806.67C998.806,1805.79 997.576,1805.11 995.848,1805.11C992.724,1805.11 990.098,1807.65 990.098,1810.78C990.098,1813.9 992.724,1816.45 995.848,1816.45C997.534,1816.45 998.806,1815.89 999.801,1814.86C1000.82,1813.83 1001.14,1812.4 1001.14,1811.24C1001.14,1810.88 1001.11,1810.54 1001.06,1810.27L995.848,1810.27ZM1005.35,1815.01C1004.25,1815.01 1003.29,1814.1 1003.29,1812.8C1003.29,1811.48 1004.25,1810.59 1005.35,1810.59C1006.46,1810.59 1007.41,1811.48 1007.41,1812.8C1007.41,1814.1 1006.46,1815.01 1005.35,1815.01M1005.35,1809.15C1003.34,1809.15 1001.69,1810.68 1001.69,1812.8C1001.69,1814.9 1003.34,1816.45 1005.35,1816.45C1007.37,1816.45 1009.02,1814.9 1009.02,1812.8C1009.02,1810.68 1007.37,1809.15 1005.35,1809.15M1013.35,1815.01C1012.24,1815.01 1011.28,1814.1 1011.28,1812.8C1011.28,1811.48 1012.24,1810.59 1013.35,1810.59C1014.45,1810.59 1015.4,1811.48 1015.4,1812.8C1015.4,1814.1 1014.45,1815.01 1013.35,1815.01M1013.35,1809.15C1011.33,1809.15 1009.68,1810.68 1009.68,1812.8C1009.68,1814.9 1011.33,1816.45 1013.35,1816.45C1015.36,1816.45 1017.01,1814.9 1017.01,1812.8C1017.01,1810.68 1015.36,1809.15 1013.35,1809.15" style="fill:white;fill-rule:nonzero;"/>
            </g>
            <g transform="matrix(-14.3994,14.3994,-14.3994,-14.3994,973.588,51.1234)">
                <path d="M0.304,0.373C0.322,0.373 0.341,0.364 0.359,0.345L1.018,-0.313C1.037,-0.332 1.046,-0.351 1.046,-0.369L1.046,-0.373L0.308,-0.373L0.299,-0.365L0.299,0.373L0.304,0.373Z" style="fill:url(#_Linear1);fill-rule:nonzero;"/>
            </g>
            <g transform="matrix(-20.7611,0,0,-20.7611,983.913,60.8114)">
                <path d="M0.452,0.006L0.452,-0.006L0.281,-0.177L0.277,-0.175L0.075,-0.06C0.017,-0.027 0.017,0.027 0.075,0.06L0.277,0.175L0.281,0.177L0.452,0.006Z" style="fill:url(#_Linear2);fill-rule:nonzero;"/>
            </g>
            <g transform="matrix(-12.2272,-24.7606,24.7606,-12.2272,974.243,74.5632)">
                <path d="M0.266,-0.289C0.246,-0.283 0.234,-0.262 0.236,-0.232L0.266,0.289L0.442,0.23L0.266,-0.289Z" style="fill:url(#_Linear3);fill-rule:nonzero;"/>
            </g>
            <g transform="matrix(8.71954,8.71954,-8.71954,8.71954,961.144,43.8014)">
                <path d="M0.517,0.208L1.743,0.208L1.743,-0.208L0.616,0.103C0.585,0.111 0.561,0.124 0.544,0.141C0.525,0.16 0.516,0.183 0.517,0.208Z" style="fill:url(#_Linear4);fill-rule:nonzero;"/>
            </g>
            <g opacity="0.2">
                <g transform="matrix(1,0,0,1,978.074,71.9535)">
                    <path d="M0,-7.598L-12.454,-0.522C-13.151,-0.126 -13.773,-0.152 -14.174,-0.513L-14.237,-0.449L-14.174,-0.387C-13.773,-0.027 -13.151,0 -12.454,-0.396L0.08,-7.518L0,-7.598Z" style="fill-rule:nonzero;"/>
                </g>
            </g>
            <g opacity="0.12">
                <g transform="matrix(1,0,0,1,963.837,70.2994)">
                    <path d="M0,1.08C-0.25,0.816 -0.397,0.406 -0.397,-0.125L-0.397,-0C-0.397,0.531 -0.25,0.941 0,1.205L0.063,1.142L0,1.08Z" style="fill-rule:nonzero;"/>
                </g>
            </g>
            <g opacity="0.12">
                <g transform="matrix(1,0,0,1,982.352,63.3228)">
                    <path d="M0,-1.398L-4.278,1.033L-4.198,1.113L0,-1.273C0.599,-1.613 0.899,-2.063 0.899,-2.511C0.849,-2.106 0.543,-1.707 0,-1.398" style="fill-rule:nonzero;"/>
                </g>
            </g>
            <g opacity="0.25">
                <g transform="matrix(1,0,0,1,965.62,60.0039)">
                    <path d="M0,-9.813L16.732,-0.306C17.275,0.002 17.581,0.4 17.632,0.807C17.632,0.358 17.332,-0.091 16.732,-0.432L0,-9.938C-1.199,-10.62 -2.181,-10.054 -2.181,-8.68L-2.181,-8.555C-2.181,-9.928 -1.199,-10.494 0,-9.813" style="fill:white;fill-rule:nonzero;"/>
                </g>
            </g>
            <g transform="matrix(1,0,0,1,990.963,50.2879)">
                <path d="M0,3.884L0.914,3.884C1.508,3.884 1.979,3.714 2.326,3.373C2.674,3.033 2.848,2.556 2.848,1.943C2.848,1.334 2.674,0.858 2.326,0.515C1.979,0.173 1.508,0.001 0.914,0.001L0,0.001L0,3.884ZM-0.661,4.516L-0.661,-0.632L0.914,-0.632C1.705,-0.632 2.337,-0.393 2.813,0.084C3.286,0.561 3.523,1.18 3.523,1.943C3.523,2.704 3.286,3.324 2.813,3.801C2.337,4.278 1.705,4.516 0.914,4.516L-0.661,4.516Z" style="fill:white;fill-rule:nonzero;stroke:white;stroke-width:0.17px;"/>
            </g>
            <g transform="matrix(1,0,0,1,0,-1773.54)">
                <rect x="995.415" y="1823.2" width="0.661" height="5.148" style="fill:white;stroke:white;stroke-width:0.17px;"/>
            </g>
            <g transform="matrix(1,0,0,1,998.707,49.5409)">
                <path d="M0,5.378C-0.374,5.378 -0.739,5.256 -1.096,5.012C-1.454,4.767 -1.687,4.425 -1.797,3.983L-1.193,3.739C-1.121,4.022 -0.975,4.26 -0.752,4.454C-0.528,4.649 -0.278,4.746 0,4.746C0.287,4.746 0.534,4.67 0.737,4.519C0.941,4.368 1.042,4.163 1.042,3.904C1.042,3.617 0.941,3.395 0.737,3.239C0.534,3.084 0.211,2.939 -0.229,2.804C-0.686,2.661 -1.03,2.475 -1.266,2.247C-1.5,2.02 -1.618,1.728 -1.618,1.374C-1.618,1.004 -1.472,0.683 -1.179,0.41C-0.887,0.137 -0.505,0 -0.036,0C0.4,0 0.755,0.109 1.028,0.327C1.302,0.545 1.479,0.784 1.561,1.043L0.957,1.294C0.913,1.132 0.807,0.981 0.637,0.841C0.467,0.703 0.247,0.633 -0.021,0.633C-0.275,0.633 -0.492,0.704 -0.672,0.845C-0.853,0.987 -0.941,1.163 -0.941,1.374C-0.941,1.565 -0.858,1.727 -0.693,1.859C-0.528,1.99 -0.285,2.109 0.036,2.215C0.29,2.296 0.502,2.375 0.673,2.452C0.843,2.528 1.016,2.63 1.189,2.757C1.365,2.884 1.496,3.043 1.585,3.232C1.674,3.421 1.719,3.641 1.719,3.89C1.719,4.139 1.667,4.362 1.564,4.559C1.461,4.755 1.324,4.911 1.154,5.026C0.983,5.141 0.801,5.229 0.604,5.289C0.407,5.348 0.206,5.378 0,5.378" style="fill:white;fill-rule:nonzero;"/>
            </g>
            <g transform="matrix(1,0,0,1,998.707,49.5409)">
                <path d="M0,5.378C-0.374,5.378 -0.739,5.256 -1.096,5.012C-1.454,4.767 -1.687,4.425 -1.797,3.983L-1.193,3.739C-1.121,4.022 -0.975,4.26 -0.752,4.454C-0.528,4.649 -0.278,4.746 0,4.746C0.287,4.746 0.534,4.67 0.737,4.519C0.941,4.368 1.042,4.163 1.042,3.904C1.042,3.617 0.941,3.395 0.737,3.239C0.534,3.084 0.211,2.939 -0.229,2.804C-0.686,2.661 -1.03,2.475 -1.266,2.247C-1.5,2.02 -1.618,1.728 -1.618,1.374C-1.618,1.004 -1.472,0.683 -1.179,0.41C-0.887,0.137 -0.505,0 -0.036,0C0.4,0 0.755,0.109 1.028,0.327C1.302,0.545 1.479,0.784 1.561,1.043L0.957,1.294C0.913,1.132 0.807,0.981 0.637,0.841C0.467,0.703 0.247,0.633 -0.021,0.633C-0.275,0.633 -0.492,0.704 -0.672,0.845C-0.853,0.987 -0.941,1.163 -0.941,1.374C-0.941,1.565 -0.858,1.727 -0.693,1.859C-0.528,1.99 -0.285,2.109 0.036,2.215C0.29,2.296 0.502,2.375 0.673,2.452C0.843,2.528 1.016,2.63 1.189,2.757C1.365,2.884 1.496,3.043 1.585,3.232C1.674,3.421 1.719,3.641 1.719,3.89C1.719,4.139 1.667,4.362 1.564,4.559C1.461,4.755 1.324,4.911 1.154,5.026C0.983,5.141 0.801,5.229 0.604,5.289C0.407,5.348 0.206,5.378 0,5.378Z" style="fill:none;fill-rule:nonzero;stroke:white;stroke-width:0.17px;"/>
            </g>
            <g transform="matrix(1,0,0,1,1002.04,52.3739)">
                <path d="M0,-0.288L1.107,-0.288C1.386,-0.288 1.608,-0.381 1.776,-0.568C1.944,-0.755 2.027,-0.96 2.027,-1.186C2.027,-1.412 1.944,-1.618 1.776,-1.804C1.608,-1.992 1.386,-2.085 1.107,-2.085L0,-2.085L0,-0.288ZM0,2.43L-0.661,2.43L-0.661,-2.718L1.094,-2.718C1.529,-2.718 1.907,-2.573 2.226,-2.283C2.545,-1.993 2.704,-1.627 2.704,-1.186C2.704,-0.746 2.545,-0.38 2.226,-0.09C1.907,0.2 1.529,0.345 1.094,0.345L0,0.345L0,2.43Z" style="fill:white;fill-rule:nonzero;stroke:white;stroke-width:0.17px;"/>
            </g>
            <g transform="matrix(1,0,0,1,1006.5,50.752)">
                <path d="M0,2.956C0.381,3.342 0.847,3.535 1.398,3.535C1.95,3.535 2.417,3.342 2.797,2.956C3.178,2.57 3.369,2.077 3.369,1.478C3.369,0.879 3.178,0.387 2.797,-0C2.417,-0.385 1.95,-0.578 1.398,-0.578C0.847,-0.578 0.381,-0.385 0,-0C-0.381,0.387 -0.571,0.879 -0.571,1.478C-0.571,2.077 -0.381,2.57 0,2.956M3.286,3.387C2.78,3.907 2.15,4.167 1.398,4.167C0.646,4.167 0.017,3.907 -0.488,3.387C-0.994,2.867 -1.247,2.231 -1.247,1.478C-1.247,0.726 -0.994,0.089 -0.488,-0.43C0.017,-0.951 0.646,-1.211 1.398,-1.211C2.146,-1.211 2.774,-0.95 3.283,-0.427C3.791,0.095 4.045,0.73 4.045,1.478C4.045,2.231 3.791,2.867 3.286,3.387" style="fill:white;fill-rule:nonzero;"/>
            </g>
            <g transform="matrix(1,0,0,1,1006.5,50.752)">
                <path d="M0,2.956C0.381,3.342 0.847,3.535 1.398,3.535C1.95,3.535 2.417,3.342 2.797,2.956C3.178,2.57 3.369,2.077 3.369,1.478C3.369,0.879 3.178,0.387 2.797,-0C2.417,-0.385 1.95,-0.578 1.398,-0.578C0.847,-0.578 0.381,-0.385 0,-0C-0.381,0.387 -0.571,0.879 -0.571,1.478C-0.571,2.077 -0.381,2.57 0,2.956ZM3.286,3.387C2.78,3.907 2.15,4.167 1.398,4.167C0.646,4.167 0.017,3.907 -0.488,3.387C-0.994,2.867 -1.247,2.231 -1.247,1.478C-1.247,0.726 -0.994,0.089 -0.488,-0.43C0.017,-0.951 0.646,-1.211 1.398,-1.211C2.146,-1.211 2.774,-0.95 3.283,-0.427C3.791,0.095 4.045,0.73 4.045,1.478C4.045,2.231 3.791,2.867 3.286,3.387Z" style="fill:none;fill-rule:nonzero;stroke:white;stroke-width:0.17px;"/>
            </g>
            <g transform="matrix(1,0,0,1,1011.47,49.6562)">
                <path d="M0,5.148L0,0L0.806,0L3.308,4.005L3.336,4.005L3.308,3.013L3.308,0L3.97,0L3.97,5.148L3.279,5.148L0.661,0.949L0.633,0.949L0.661,1.941L0.661,5.148L0,5.148Z" style="fill:white;fill-rule:nonzero;stroke:white;stroke-width:0.17px;"/>
            </g>
            <g transform="matrix(1,0,0,1,0,-1773.54)">
                <rect x="1016.62" y="1823.2" width="0.661" height="5.148" style="fill:white;stroke:white;stroke-width:0.17px;"/>
            </g>
            <g transform="matrix(1,0,0,1,1019.12,50.2879)">
                <path d="M0,3.884L1.331,3.884C1.585,3.884 1.791,3.795 1.949,3.617C2.107,3.441 2.187,3.246 2.187,3.035C2.187,2.824 2.104,2.632 1.941,2.456C1.779,2.282 1.565,2.194 1.302,2.194L0,2.194L0,3.884ZM0,1.575L1.201,1.575C1.45,1.575 1.65,1.493 1.802,1.327C1.952,1.162 2.027,0.981 2.027,0.785C2.027,0.589 1.955,0.408 1.809,0.246C1.662,0.083 1.47,0.001 1.23,0.001L0,0.001L0,1.575ZM-0.661,4.516L-0.661,-0.632L1.201,-0.632C1.604,-0.632 1.952,-0.498 2.247,-0.233C2.542,0.034 2.689,0.368 2.689,0.77C2.689,1.015 2.626,1.231 2.499,1.418C2.372,1.605 2.203,1.746 1.992,1.842L1.992,1.87C2.246,1.957 2.454,2.105 2.617,2.316C2.78,2.527 2.862,2.772 2.862,3.05C2.862,3.471 2.707,3.822 2.398,4.099C2.089,4.377 1.724,4.516 1.302,4.516L-0.661,4.516Z" style="fill:white;fill-rule:nonzero;stroke:white;stroke-width:0.17px;"/>
            </g>
            <g transform="matrix(1,0,0,1,1022.87,49.6562)">
                <path d="M0,5.148L0,0L0.661,0L0.661,4.516L2.89,4.516L2.89,5.148L0,5.148Z" style="fill:white;fill-rule:nonzero;stroke:white;stroke-width:0.17px;"/>
            </g>
            <g transform="matrix(1,0,0,1,1029.6,54.1711)">
                <path d="M0,-3.882L-2.344,-3.882L-2.344,-2.25L-0.229,-2.25L-0.229,-1.632L-2.344,-1.632L-2.344,0.001L0,0.001L0,0.633L-3.005,0.633L-3.005,-4.515L0,-4.515L0,-3.882Z" style="fill:white;fill-rule:nonzero;stroke:white;stroke-width:0.17px;"/>
            </g>
            <g transform="matrix(1,0,0,1,1035.37,54.1711)">
                <path d="M0,-3.882L-2.344,-3.882L-2.344,-2.25L-0.23,-2.25L-0.23,-1.632L-2.344,-1.632L-2.344,0.001L0,0.001L0,0.633L-3.005,0.633L-3.005,-4.515L0,-4.515L0,-3.882Z" style="fill:white;fill-rule:nonzero;stroke:white;stroke-width:0.17px;"/>
            </g>
            <g transform="matrix(1,0,0,1,1036.4,49.6562)">
                <path d="M0,5.148L0,0L0.805,0L3.307,4.005L3.336,4.005L3.307,3.013L3.307,0L3.969,0L3.969,5.148L3.278,5.148L0.661,0.949L0.633,0.949L0.661,1.941L0.661,5.148L0,5.148Z" style="fill:white;fill-rule:nonzero;stroke:white;stroke-width:0.17px;"/>
            </g>
        </g>
    </g>
    <defs>
        <linearGradient id="_Linear1" x1="0" y1="0" x2="1" y2="0" gradientUnits="userSpaceOnUse" gradientTransform="matrix(1,0,0,-1,0,1.28199e-05)"><stop offset="0" style="stop-color:rgb(0,160,255);stop-opacity:1"/><stop offset="0.01" style="stop-color:rgb(0,161,255);stop-opacity:1"/><stop offset="0.26" style="stop-color:rgb(0,190,255);stop-opacity:1"/><stop offset="0.51" style="stop-color:rgb(0,210,255);stop-opacity:1"/><stop offset="0.76" style="stop-color:rgb(0,223,255);stop-opacity:1"/><stop offset="1" style="stop-color:rgb(0,227,255);stop-opacity:1"/></linearGradient>
        <linearGradient id="_Linear2" x1="0" y1="0" x2="1" y2="0" gradientUnits="userSpaceOnUse" gradientTransform="matrix(1,0,0,-1,0,-1.40166e-05)"><stop offset="0" style="stop-color:rgb(255,224,0);stop-opacity:1"/><stop offset="0.41" style="stop-color:rgb(255,189,0);stop-opacity:1"/><stop offset="0.78" style="stop-color:rgb(255,165,0);stop-opacity:1"/><stop offset="1" style="stop-color:rgb(255,156,0);stop-opacity:1"/></linearGradient>
        <linearGradient id="_Linear3" x1="0" y1="0" x2="1" y2="0" gradientUnits="userSpaceOnUse" gradientTransform="matrix(-0.320927,-0.947104,-0.947104,0.320927,0.351436,0.251979)"><stop offset="0" style="stop-color:rgb(255,58,68);stop-opacity:1"/><stop offset="1" style="stop-color:rgb(195,17,98);stop-opacity:1"/></linearGradient>
        <linearGradient id="_Linear4" x1="0" y1="0" x2="1" y2="0" gradientUnits="userSpaceOnUse" gradientTransform="matrix(1,0,0,-1,0,-2.01845e-06)"><stop offset="0" style="stop-color:rgb(50,160,113);stop-opacity:1"/><stop offset="0.07" style="stop-color:rgb(45,167,113);stop-opacity:1"/><stop offset="0.48" style="stop-color:rgb(21,207,116);stop-opacity:1"/><stop offset="0.8" style="stop-color:rgb(6,231,117);stop-opacity:1"/><stop offset="1" style="stop-color:rgb(0,240,118);stop-opacity:1"/></linearGradient>
    </defs>
</svg>
