<?xml version="1.0" encoding="UTF-8" standalone="no"?>
<!DOCTYPE svg PUBLIC "-//W3C//DTD SVG 1.1//EN" "http://www.w3.org/Graphics/SVG/1.1/DTD/svg11.dtd">
<svg width="100%" height="100%" viewBox="0 0 106 36" version="1.1" xmlns="http://www.w3.org/2000/svg" xmlns:xlink="http://www.w3.org/1999/xlink" xml:space="preserve" xmlns:serif="http://www.serif.com/" style="fill-rule:evenodd;clip-rule:evenodd;stroke-linejoin:round;stroke-miterlimit:2;">
    <g transform="matrix(1,0,0,1,-1120,-43)">
        <g id="btn-apple-dark">
            <g transform="matrix(1,0,0,1,1217.61,78.204)">
                <path d="M0,-35.204L-88.537,-35.204C-88.859,-35.204 -89.179,-35.204 -89.5,-35.202C-89.77,-35.201 -90.037,-35.195 -90.309,-35.191C-90.895,-35.177 -91.487,-35.141 -92.072,-35.036C-92.661,-34.933 -93.209,-34.756 -93.745,-34.484C-94.272,-34.214 -94.754,-33.863 -95.17,-33.446C-95.591,-33.03 -95.94,-32.547 -96.207,-32.02C-96.48,-31.484 -96.654,-30.934 -96.757,-30.345C-96.863,-29.762 -96.899,-29.172 -96.915,-28.583C-96.923,-28.313 -96.924,-28.042 -96.928,-27.772L-96.928,-7.43C-96.924,-7.157 -96.923,-6.892 -96.915,-6.619C-96.899,-6.029 -96.863,-5.439 -96.757,-4.856C-96.654,-4.267 -96.48,-3.714 -96.207,-3.181C-95.94,-2.656 -95.591,-2.173 -95.17,-1.76C-94.754,-1.34 -94.272,-0.99 -93.745,-0.723C-93.209,-0.448 -92.661,-0.274 -92.072,-0.167C-91.487,-0.062 -90.895,-0.028 -90.309,-0.012C-90.037,-0.006 -89.77,-0.002 -89.5,-0.002C-89.179,0 -88.859,0 -88.537,0L0,0C0.316,0 0.638,0 0.954,-0.002C1.223,-0.002 1.497,-0.006 1.766,-0.012C2.355,-0.028 2.946,-0.062 3.525,-0.167C4.115,-0.274 4.663,-0.448 5.205,-0.723C5.731,-0.99 6.212,-1.34 6.628,-1.76C7.048,-2.173 7.396,-2.656 7.668,-3.181C7.938,-3.714 8.113,-4.267 8.213,-4.856C8.321,-5.439 8.355,-6.029 8.376,-6.619C8.38,-6.892 8.38,-7.157 8.38,-7.43C8.387,-7.749 8.387,-8.067 8.387,-8.392L8.387,-26.811C8.387,-27.134 8.387,-27.454 8.38,-27.772C8.38,-28.042 8.38,-28.313 8.376,-28.583C8.355,-29.172 8.321,-29.762 8.213,-30.345C8.113,-30.934 7.938,-31.484 7.668,-32.02C7.396,-32.547 7.048,-33.03 6.628,-33.446C6.212,-33.863 5.731,-34.214 5.205,-34.484C4.663,-34.756 4.115,-34.933 3.525,-35.036C2.946,-35.141 2.355,-35.177 1.766,-35.191C1.497,-35.195 1.223,-35.201 0.954,-35.202C0.638,-35.204 0.316,-35.204 0,-35.204" style="fill:rgb(182,182,182);fill-rule:nonzero;"/>
            </g>
            <g transform="matrix(1,0,0,1,1128.12,43.7706)">
                <path d="M0,33.663C-0.268,33.663 -0.529,33.66 -0.796,33.653C-1.288,33.64 -1.871,33.612 -2.44,33.51C-2.978,33.413 -3.455,33.254 -3.898,33.028C-4.357,32.795 -4.771,32.494 -5.128,32.133C-5.492,31.775 -5.792,31.365 -6.026,30.904C-6.255,30.459 -6.41,29.983 -6.504,29.445C-6.611,28.853 -6.639,28.252 -6.65,27.795C-6.656,27.61 -6.663,26.992 -6.663,26.992L-6.663,6.661C-6.663,6.661 -6.656,6.053 -6.65,5.874C-6.639,5.413 -6.611,4.812 -6.505,4.226C-6.411,3.686 -6.255,3.209 -6.026,2.764C-5.793,2.302 -5.493,1.889 -5.133,1.533C-4.77,1.169 -4.355,0.867 -3.899,0.633C-3.447,0.404 -2.971,0.247 -2.444,0.155C-1.852,0.048 -1.251,0.022 -0.793,0.01L0.001,-0.001L90.446,-0.001L91.25,0.011C91.701,0.022 92.302,0.048 92.885,0.154C93.415,0.246 93.895,0.404 94.355,0.636C94.807,0.867 95.22,1.169 95.58,1.53C95.94,1.887 96.242,2.302 96.481,2.766C96.708,3.216 96.862,3.692 96.952,4.217C97.055,4.772 97.086,5.342 97.105,5.878C97.107,6.127 97.107,6.395 97.107,6.661C97.114,6.991 97.114,7.305 97.114,7.622L97.114,26.041C97.114,26.361 97.114,26.673 97.107,26.987C97.107,27.273 97.107,27.536 97.104,27.806C97.086,28.324 97.055,28.893 96.954,29.437C96.862,29.976 96.708,30.454 96.479,30.907C96.241,31.364 95.939,31.777 95.585,32.126C95.221,32.494 94.809,32.794 94.354,33.026C93.896,33.258 93.431,33.412 92.885,33.51C92.321,33.612 91.737,33.64 91.24,33.653C90.982,33.66 90.712,33.663 90.45,33.663L89.496,33.664L0,33.663Z" style="fill-rule:nonzero;"/>
            </g>
            <g transform="matrix(1,0,0,1,1142.48,64.1762)">
                <path d="M0,-3.31C-0.022,-5.731 1.981,-6.909 2.073,-6.964C0.938,-8.619 -0.821,-8.845 -1.438,-8.863C-2.917,-9.018 -4.35,-7.978 -5.103,-7.978C-5.87,-7.978 -7.03,-8.848 -8.278,-8.822C-9.886,-8.797 -11.39,-7.866 -12.215,-6.421C-13.917,-3.474 -12.647,0.857 -11.017,3.239C-10.201,4.405 -9.248,5.708 -8,5.662C-6.779,5.611 -6.324,4.883 -4.851,4.883C-3.391,4.883 -2.963,5.662 -1.689,5.632C-0.38,5.611 0.445,4.461 1.232,3.283C2.175,1.946 2.554,0.629 2.569,0.562C2.538,0.551 0.024,-0.407 0,-3.31" style="fill:white;fill-rule:nonzero;"/>
            </g>
            <g transform="matrix(0.658331,-0.752729,-0.752729,-0.658331,1140.38,52.7567)">
                <path d="M-0.941,-0.428C0.109,-0.381 1.245,0.017 2.016,0.857C1.359,1.545 0.114,2.034 -0.941,2.02C-1.872,2.01 -3.101,1.653 -3.831,0.83C-3.187,-0.026 -2.002,-0.444 -0.941,-0.428" style="fill:white;fill-rule:nonzero;"/>
            </g>
            <g transform="matrix(1,0,0,1,1154.18,63.227)">
                <path d="M0,2.295L3.302,2.295L1.674,-2.499L1.629,-2.499L0,2.295ZM3.734,3.658L-0.432,3.658L-1.432,6.612L-3.196,6.612L0.749,-4.317L2.583,-4.317L6.528,6.612L4.733,6.612L3.734,3.658Z" style="fill:white;fill-rule:nonzero;"/>
            </g>
            <g transform="matrix(1,0,0,1,1167.55,68.4075)">
                <path d="M0,-2.552C0,-4.165 -0.834,-5.226 -2.106,-5.226C-3.355,-5.226 -4.196,-4.143 -4.196,-2.552C-4.196,-0.947 -3.355,0.129 -2.106,0.129C-0.834,0.129 0,-0.924 0,-2.552M1.681,-2.552C1.681,-0.076 0.355,1.515 -1.645,1.515C-2.78,1.515 -3.682,1.007 -4.151,0.121L-4.189,0.121L-4.189,4.068L-5.825,4.068L-5.825,-6.536L-4.242,-6.536L-4.242,-5.211L-4.212,-5.211C-3.757,-6.066 -2.787,-6.62 -1.675,-6.62C0.348,-6.62 1.681,-5.021 1.681,-2.552" style="fill:white;fill-rule:nonzero;"/>
            </g>
            <g transform="matrix(1,0,0,1,1176.32,68.4075)">
                <path d="M0,-2.552C0,-4.165 -0.834,-5.226 -2.105,-5.226C-3.355,-5.226 -4.196,-4.143 -4.196,-2.552C-4.196,-0.947 -3.355,0.129 -2.105,0.129C-0.834,0.129 0,-0.924 0,-2.552M1.682,-2.552C1.682,-0.076 0.355,1.515 -1.645,1.515C-2.779,1.515 -3.681,1.007 -4.151,0.121L-4.188,0.121L-4.188,4.068L-5.824,4.068L-5.824,-6.536L-4.241,-6.536L-4.241,-5.211L-4.211,-5.211C-3.757,-6.066 -2.787,-6.62 -1.674,-6.62C0.349,-6.62 1.682,-5.021 1.682,-2.552" style="fill:white;fill-rule:nonzero;"/>
            </g>
            <g transform="matrix(1,0,0,1,1183.8,61.9559)">
                <path d="M0,4.838C0.121,5.922 1.174,6.633 2.612,6.633C3.991,6.633 4.983,5.922 4.983,4.945C4.983,4.096 4.385,3.588 2.969,3.24L1.552,2.899C-0.455,2.415 -1.387,1.476 -1.387,-0.047C-1.387,-1.933 0.257,-3.228 2.59,-3.228C4.899,-3.228 6.482,-1.933 6.536,-0.047L4.885,-0.047C4.786,-1.138 3.885,-1.796 2.567,-1.796C1.249,-1.796 0.348,-1.13 0.348,-0.161C0.348,0.612 0.924,1.067 2.332,1.415L3.536,1.711C5.779,2.241 6.711,3.142 6.711,4.74C6.711,6.785 5.082,8.066 2.491,8.066C0.067,8.066 -1.568,6.815 -1.675,4.838L0,4.838Z" style="fill:white;fill-rule:nonzero;"/>
            </g>
            <g transform="matrix(1,0,0,1,1194.04,69.8844)">
                <path d="M0,-9.899L0,-8.013L1.516,-8.013L1.516,-6.718L0,-6.718L0,-2.325C0,-1.643 0.304,-1.325 0.97,-1.325C1.137,-1.325 1.401,-1.348 1.508,-1.363L1.508,-0.075C1.326,-0.03 0.963,0 0.599,0C-1.014,0 -1.644,-0.606 -1.644,-2.151L-1.644,-6.718L-2.802,-6.718L-2.802,-8.013L-1.644,-8.013L-1.644,-9.899L0,-9.899Z" style="fill:white;fill-rule:nonzero;"/>
            </g>
            <g transform="matrix(1,0,0,1,1202.32,65.8555)">
                <path d="M0,0C0,-1.72 -0.788,-2.735 -2.113,-2.735C-3.438,-2.735 -4.226,-1.712 -4.226,0C-4.226,1.727 -3.438,2.734 -2.113,2.734C-0.788,2.734 0,1.727 0,0M-5.893,0C-5.893,-2.507 -4.416,-4.083 -2.113,-4.083C0.197,-4.083 1.667,-2.507 1.667,0C1.667,2.514 0.205,4.083 -2.113,4.083C-4.431,4.083 -5.893,2.514 -5.893,0" style="fill:white;fill-rule:nonzero;"/>
            </g>
            <g transform="matrix(1,0,0,1,1205.34,69.7561)">
                <path d="M0,-7.885L1.561,-7.885L1.561,-6.529L1.598,-6.529C1.849,-7.43 2.575,-7.968 3.515,-7.968C3.749,-7.968 3.946,-7.937 4.075,-7.907L4.075,-6.378C3.946,-6.431 3.658,-6.476 3.34,-6.476C2.287,-6.476 1.636,-5.764 1.636,-4.643L1.636,0.083L0,0.083L0,-7.885Z" style="fill:white;fill-rule:nonzero;"/>
            </g>
            <g transform="matrix(1,0,0,1,1211.42,66.5896)">
                <path d="M0,-1.469L3.983,-1.469C3.946,-2.688 3.166,-3.491 2.029,-3.491C0.901,-3.491 0.084,-2.673 0,-1.469M5.529,0.909C5.309,2.356 3.9,3.348 2.098,3.348C-0.22,3.348 -1.658,1.795 -1.658,-0.696C-1.658,-3.196 -0.212,-4.817 2.029,-4.817C4.233,-4.817 5.62,-3.302 5.62,-0.886L5.62,-0.326L-0.008,-0.326L-0.008,-0.227C-0.008,1.136 0.849,2.03 2.136,2.03C3.044,2.03 3.757,1.598 3.976,0.909L5.529,0.909Z" style="fill:white;fill-rule:nonzero;"/>
            </g>
            <g transform="matrix(1,0,0,1,1152.89,51.4259)">
                <path d="M0,3.767L0.99,3.767C2.088,3.767 2.722,3.083 2.722,1.878C2.722,0.692 2.078,0 0.99,0L0,0L0,3.767ZM1.081,-0.742C2.639,-0.742 3.552,0.215 3.552,1.868C3.552,3.545 2.646,4.509 1.081,4.509L-0.815,4.509L-0.815,-0.742L1.081,-0.742Z" style="fill:white;fill-rule:nonzero;"/>
            </g>
            <g transform="matrix(1,0,0,1,1158.16,54.3199)">
                <path d="M0,-0.732L2.001,-0.732C1.983,-1.354 1.605,-1.758 1.025,-1.758C0.447,-1.758 0.043,-1.351 0,-0.732M2.751,0.545C2.573,1.255 1.939,1.692 1.033,1.692C-0.102,1.692 -0.797,0.913 -0.797,-0.354C-0.797,-1.62 -0.087,-2.424 1.03,-2.424C2.133,-2.424 2.798,-1.671 2.798,-0.426L2.798,-0.153L0,-0.153L0,-0.109C0.025,0.585 0.43,1.026 1.055,1.026C1.528,1.026 1.853,0.855 1.998,0.545L2.751,0.545Z" style="fill:white;fill-rule:nonzero;"/>
            </g>
            <g transform="matrix(1,0,0,1,1163.46,56.012)">
                <path d="M0,-4.116C0.891,-4.116 1.474,-3.701 1.55,-3.003L0.8,-3.003C0.728,-3.294 0.443,-3.479 0,-3.479C-0.437,-3.479 -0.769,-3.272 -0.769,-2.963C-0.769,-2.726 -0.568,-2.577 -0.139,-2.478L0.52,-2.326C1.273,-2.151 1.627,-1.827 1.627,-1.245C1.627,-0.499 0.932,0 -0.015,0C-0.958,0 -1.572,-0.426 -1.642,-1.128L-0.859,-1.128C-0.761,-0.823 -0.47,-0.634 0.003,-0.634C0.49,-0.634 0.837,-0.852 0.837,-1.169C0.837,-1.405 0.651,-1.558 0.254,-1.653L-0.437,-1.813C-1.19,-1.991 -1.54,-2.329 -1.54,-2.919C-1.54,-3.621 -0.896,-4.116 0,-4.116" style="fill:white;fill-rule:nonzero;"/>
            </g>
            <g transform="matrix(1,0,0,1,1168.74,54.6396)">
                <path d="M0,-1.372C-0.092,-1.758 -0.412,-2.045 -0.937,-2.045C-1.592,-2.045 -1.992,-1.543 -1.992,-0.699C-1.992,0.16 -1.588,0.673 -0.937,0.673C-0.441,0.673 -0.103,0.448 0,0.022L0.76,0.022C0.658,0.819 0.047,1.372 -0.933,1.372C-2.086,1.372 -2.792,0.593 -2.792,-0.699C-2.792,-1.969 -2.09,-2.744 -0.937,-2.744C0.057,-2.744 0.658,-2.165 0.76,-1.372L0,-1.372Z" style="fill:white;fill-rule:nonzero;"/>
            </g>
            <g transform="matrix(1,0,0,1,1171.58,54.7496)">
                <path d="M0,-3.44L0.914,-4.691L1.831,-4.691L0.809,-3.44L0,-3.44ZM1.245,-0.273L1.245,-0.605L0.277,-0.543C-0.269,-0.506 -0.517,-0.321 -0.517,0.028C-0.517,0.385 -0.207,0.593 0.219,0.593C0.809,0.593 1.245,0.218 1.245,-0.273M-1.303,0.065C-1.303,-0.648 -0.771,-1.06 0.171,-1.118L1.245,-1.18L1.245,-1.522C1.245,-1.94 0.968,-2.177 0.434,-2.177C-0.003,-2.177 -0.306,-2.017 -0.393,-1.736L-1.149,-1.736C-1.069,-2.417 -0.43,-2.854 0.47,-2.854C1.463,-2.854 2.023,-2.359 2.023,-1.522L2.023,1.185L1.271,1.185L1.271,0.629L1.209,0.629C0.973,1.025 0.539,1.251 0.019,1.251C-0.746,1.251 -1.303,0.789 -1.303,0.065" style="fill:white;fill-rule:nonzero;"/>
            </g>
            <g transform="matrix(1,0,0,1,1174.82,55.8702)">
                <path d="M0,-3.898L0.753,-3.898L0.753,-3.29L0.812,-3.29C0.924,-3.68 1.364,-3.963 1.882,-3.963C1.997,-3.963 2.147,-3.953 2.23,-3.931L2.23,-3.159C2.165,-3.181 1.933,-3.207 1.794,-3.207C1.201,-3.207 0.782,-2.832 0.782,-2.275L0.782,0.065L0,0.065L0,-3.898Z" style="fill:white;fill-rule:nonzero;"/>
            </g>
            <g transform="matrix(1,0,0,1,1180.55,55.4513)">
                <path d="M0,-1.547C0,-2.337 -0.408,-2.842 -1.074,-2.842C-1.747,-2.842 -2.126,-2.337 -2.126,-1.547C-2.126,-0.757 -1.747,-0.251 -1.074,-0.251C-0.404,-0.251 0,-0.753 0,-1.547M-2.777,0.881L-1.977,0.881C-1.911,1.168 -1.58,1.354 -1.052,1.354C-0.4,1.354 -0.015,1.044 -0.015,0.52L-0.015,-0.24L-0.073,-0.24C-0.313,0.189 -0.751,0.426 -1.296,0.426C-2.308,0.426 -2.934,-0.357 -2.934,-1.543C-2.934,-2.752 -2.301,-3.545 -1.289,-3.545C-0.743,-3.545 -0.267,-3.276 -0.044,-2.846L0.018,-2.846L0.018,-3.479L0.768,-3.479L0.768,0.516C0.768,1.423 0.058,1.998 -1.063,1.998C-2.054,1.998 -2.694,1.554 -2.777,0.881" style="fill:white;fill-rule:nonzero;"/>
            </g>
            <g transform="matrix(1,0,0,1,1184.89,53.4201)">
                <path d="M0,1.056L0,0.724L-0.968,0.786C-1.514,0.823 -1.761,1.009 -1.761,1.358C-1.761,1.715 -1.452,1.922 -1.026,1.922C-0.437,1.922 0,1.547 0,1.056M-2.548,1.394C-2.548,0.681 -2.017,0.27 -1.073,0.211L0,0.15L0,-0.193C0,-0.611 -0.277,-0.847 -0.812,-0.847C-1.248,-0.847 -1.551,-0.687 -1.638,-0.407L-2.395,-0.407C-2.314,-1.088 -1.675,-1.524 -0.775,-1.524C0.218,-1.524 0.778,-1.029 0.778,-0.193L0.778,2.515L0.025,2.515L0.025,1.958L-0.036,1.958C-0.272,2.355 -0.706,2.58 -1.227,2.58C-1.99,2.58 -2.548,2.118 -2.548,1.394" style="fill:white;fill-rule:nonzero;"/>
            </g>
            <g transform="matrix(1,0,0,1,0,-1771.64)">
                <rect x="1186.92" y="1822.07" width="0.782" height="5.51" style="fill:white;"/>
            </g>
            <g transform="matrix(1,0,0,1,1191.73,53.9561)">
                <path d="M0,-0.004C0,-0.863 -0.386,-1.365 -1.062,-1.365C-1.743,-1.365 -2.125,-0.863 -2.125,-0.004C-2.125,0.862 -1.743,1.36 -1.062,1.36C-0.386,1.36 0,0.858 0,-0.004M-2.933,-0.004C-2.933,-1.282 -2.22,-2.06 -1.062,-2.06C0.092,-2.06 0.805,-1.282 0.805,-0.004C0.805,1.28 0.095,2.056 -1.062,2.056C-2.224,2.056 -2.933,1.28 -2.933,-0.004" style="fill:white;fill-rule:nonzero;"/>
            </g>
            <g transform="matrix(1,0,0,1,1196.33,54.3199)">
                <path d="M0,-0.732L2.002,-0.732C1.983,-1.354 1.605,-1.758 1.026,-1.758C0.447,-1.758 0.044,-1.351 0,-0.732M2.751,0.545C2.573,1.255 1.939,1.692 1.034,1.692C-0.102,1.692 -0.797,0.913 -0.797,-0.354C-0.797,-1.62 -0.087,-2.424 1.03,-2.424C2.133,-2.424 2.798,-1.671 2.798,-0.426L2.798,-0.153L0,-0.153L0,-0.109C0.025,0.585 0.43,1.026 1.056,1.026C1.529,1.026 1.853,0.855 1.998,0.545L2.751,0.545Z" style="fill:white;fill-rule:nonzero;"/>
            </g>
            <g transform="matrix(1,0,0,1,1200.18,55.8592)">
                <path d="M0,-3.887L0.753,-3.887L0.753,-3.257L0.812,-3.257C1.004,-3.698 1.397,-3.963 1.994,-3.963C2.878,-3.963 3.365,-3.432 3.365,-2.49L3.365,0.076L2.583,0.076L2.583,-2.293C2.583,-2.93 2.307,-3.246 1.729,-3.246C1.149,-3.246 0.782,-2.861 0.782,-2.242L0.782,0.076L0,0.076L0,-3.887Z" style="fill:white;fill-rule:nonzero;"/>
            </g>
            <g transform="matrix(1,0,0,1,1207.51,54.3199)">
                <path d="M0,-0.732L2.002,-0.732C1.983,-1.354 1.605,-1.758 1.026,-1.758C0.447,-1.758 0.044,-1.351 0,-0.732M2.751,0.545C2.573,1.255 1.939,1.692 1.034,1.692C-0.102,1.692 -0.797,0.913 -0.797,-0.354C-0.797,-1.62 -0.087,-2.424 1.03,-2.424C2.133,-2.424 2.798,-1.671 2.798,-0.426L2.798,-0.153L0,-0.153L0,-0.109C0.025,0.585 0.43,1.026 1.056,1.026C1.529,1.026 1.853,0.855 1.998,0.545L2.751,0.545Z" style="fill:white;fill-rule:nonzero;"/>
            </g>
            <g transform="matrix(1,0,0,1,0,-1771.64)">
                <rect x="1211.39" y="1822.07" width="0.782" height="5.51" style="fill:white;"/>
            </g>
        </g>
    </g>
</svg>
