<?xml version="1.0" encoding="UTF-8" standalone="no"?>
<!DOCTYPE svg PUBLIC "-//W3C//DTD SVG 1.1//EN" "http://www.w3.org/Graphics/SVG/1.1/DTD/svg11.dtd">
<svg width="100%" height="100%" viewBox="0 0 105 35" version="1.1" xmlns="http://www.w3.org/2000/svg" xmlns:xlink="http://www.w3.org/1999/xlink" xml:space="preserve" xmlns:serif="http://www.serif.com/" style="fill-rule:evenodd;clip-rule:evenodd;stroke-linejoin:round;stroke-miterlimit:2;">
    <g transform="matrix(1,0,0,1,-100,-1862)">
        <g id="img-appStore" transform="matrix(1,0,0,1,-0.1789,0.5039)">
            <g transform="matrix(1,0,0,1,196.547,1896.5)">
                <path d="M0,-35L-88.025,-35C-88.346,-35 -88.663,-35 -88.983,-34.998C-89.25,-34.996 -89.517,-34.991 -89.787,-34.987C-90.369,-34.973 -90.959,-34.937 -91.54,-34.832C-92.126,-34.729 -92.67,-34.555 -93.204,-34.284C-93.728,-34.016 -94.206,-33.667 -94.62,-33.252C-95.039,-32.838 -95.385,-32.357 -95.651,-31.834C-95.923,-31.302 -96.096,-30.755 -96.198,-30.169C-96.303,-29.589 -96.339,-29.003 -96.354,-28.417C-96.363,-28.148 -96.363,-27.879 -96.368,-27.611L-96.368,-7.386C-96.363,-7.114 -96.363,-6.852 -96.354,-6.579C-96.339,-5.993 -96.303,-5.407 -96.198,-4.828C-96.096,-4.241 -95.923,-3.692 -95.651,-3.161C-95.385,-2.641 -95.039,-2.16 -94.62,-1.749C-94.206,-1.331 -93.728,-0.983 -93.204,-0.718C-92.67,-0.444 -92.126,-0.271 -91.54,-0.166C-90.959,-0.062 -90.369,-0.027 -89.787,-0.011C-89.517,-0.005 -89.25,-0.002 -88.983,-0.002C-88.663,0 -88.346,0 -88.025,0L0,0C0.315,0 0.634,0 0.949,-0.002C1.215,-0.002 1.489,-0.005 1.755,-0.011C2.342,-0.027 2.93,-0.062 3.505,-0.166C4.092,-0.271 4.637,-0.444 5.175,-0.718C5.698,-0.983 6.176,-1.331 6.59,-1.749C7.007,-2.16 7.354,-2.641 7.624,-3.161C7.892,-3.692 8.067,-4.241 8.166,-4.828C8.273,-5.407 8.308,-5.993 8.328,-6.579C8.332,-6.852 8.332,-7.114 8.332,-7.386C8.338,-7.704 8.338,-8.021 8.338,-8.343L8.338,-26.655C8.338,-26.977 8.338,-27.294 8.332,-27.611C8.332,-27.879 8.332,-28.148 8.328,-28.417C8.308,-29.003 8.273,-29.589 8.166,-30.169C8.067,-30.755 7.892,-31.302 7.624,-31.834C7.354,-32.357 7.007,-32.838 6.59,-33.252C6.176,-33.667 5.698,-34.016 5.175,-34.284C4.637,-34.555 4.092,-34.729 3.505,-34.832C2.93,-34.937 2.342,-34.973 1.755,-34.987C1.489,-34.991 1.215,-34.996 0.949,-34.998C0.634,-35 0.315,-35 0,-35" style="fill-rule:nonzero;"/>
            </g>
            <g transform="matrix(1,0,0,1,107.568,1862.26)">
                <path d="M0,33.467C-0.267,33.467 -0.527,33.464 -0.791,33.458C-1.28,33.444 -1.861,33.417 -2.427,33.315C-2.961,33.219 -3.436,33.061 -3.876,32.836C-4.333,32.604 -4.743,32.305 -5.099,31.946C-5.461,31.591 -5.759,31.182 -5.992,30.724C-6.219,30.282 -6.374,29.808 -6.467,29.275C-6.574,28.686 -6.601,28.088 -6.612,27.634C-6.618,27.449 -6.625,26.834 -6.625,26.834L-6.625,6.621C-6.625,6.621 -6.618,6.017 -6.612,5.839C-6.601,5.38 -6.574,4.783 -6.468,4.2C-6.374,3.663 -6.219,3.19 -5.992,2.746C-5.76,2.287 -5.461,1.877 -5.104,1.524C-4.742,1.161 -4.33,0.861 -3.877,0.628C-3.427,0.401 -2.954,0.244 -2.43,0.153C-1.841,0.047 -1.244,0.021 -0.789,0.009L0,-0.002L89.923,-0.002L90.722,0.01C91.17,0.021 91.768,0.047 92.348,0.152C92.875,0.244 93.352,0.401 93.81,0.631C94.259,0.861 94.669,1.161 95.028,1.52C95.386,1.875 95.686,2.288 95.923,2.748C96.149,3.196 96.303,3.67 96.392,4.192C96.493,4.743 96.525,5.311 96.543,5.843C96.546,6.09 96.546,6.357 96.546,6.621C96.553,6.949 96.553,7.262 96.553,7.577L96.553,25.89C96.553,26.207 96.553,26.518 96.546,26.83C96.546,27.114 96.546,27.375 96.542,27.644C96.525,28.159 96.493,28.726 96.393,29.266C96.303,29.802 96.149,30.277 95.92,30.727C95.685,31.182 95.385,31.592 95.032,31.94C94.67,32.305 94.26,32.604 93.808,32.834C93.354,33.065 92.891,33.218 92.348,33.315C91.788,33.417 91.208,33.444 90.712,33.458C90.456,33.464 90.188,33.467 89.927,33.467L88.979,33.469L0,33.467Z" style="fill:white;fill-rule:nonzero;"/>
            </g>
            <g transform="matrix(1,0,0,1,122.051,1882.32)">
                <path d="M0,-3.422C-0.023,-5.925 2.049,-7.143 2.145,-7.2C0.971,-8.911 -0.848,-9.145 -1.487,-9.163C-3.015,-9.323 -4.497,-8.249 -5.275,-8.249C-6.069,-8.249 -7.268,-9.148 -8.559,-9.121C-10.22,-9.095 -11.776,-8.133 -12.628,-6.639C-14.388,-3.592 -13.076,0.886 -11.39,3.349C-10.546,4.555 -9.561,5.901 -8.271,5.853C-7.009,5.802 -6.538,5.049 -5.014,5.049C-3.505,5.049 -3.063,5.853 -1.747,5.823C-0.393,5.802 0.461,4.612 1.274,3.394C2.25,2.013 2.641,0.65 2.656,0.581C2.625,0.57 0.026,-0.421 0,-3.422" style="fill-rule:nonzero;"/>
            </g>
            <g transform="matrix(0.658309,-0.752748,-0.752748,-0.658309,119.873,1870.51)">
                <path d="M-0.973,-0.442C0.113,-0.394 1.288,0.017 2.085,0.885C1.405,1.596 0.119,2.103 -0.973,2.089C-1.935,2.078 -3.207,1.709 -3.96,0.858C-3.296,-0.027 -2.068,-0.46 -0.973,-0.442" style="fill-rule:nonzero;"/>
            </g>
            <g transform="matrix(1,0,0,1,133.481,1881.61)">
                <path d="M0,2.282L3.283,2.282L1.665,-2.485L1.619,-2.485L0,2.282ZM3.713,3.636L-0.429,3.636L-1.423,6.574L-3.178,6.574L0.745,-4.292L2.568,-4.292L6.491,6.574L4.707,6.574L3.713,3.636Z" style="fill-rule:nonzero;"/>
            </g>
            <g transform="matrix(1,0,0,1,146.772,1886.76)">
                <path d="M0,-2.537C0,-4.141 -0.829,-5.195 -2.093,-5.195C-3.336,-5.195 -4.171,-4.119 -4.171,-2.537C-4.171,-0.94 -3.336,0.128 -2.093,0.128C-0.829,0.128 0,-0.919 0,-2.537M1.671,-2.537C1.671,-0.075 0.354,1.507 -1.634,1.507C-2.763,1.507 -3.66,1.001 -4.127,0.12L-4.165,0.12L-4.165,4.044L-5.791,4.044L-5.791,-6.498L-4.217,-6.498L-4.217,-5.181L-4.187,-5.181C-3.735,-6.031 -2.771,-6.581 -1.665,-6.581C0.346,-6.581 1.671,-4.992 1.671,-2.537" style="fill-rule:nonzero;"/>
            </g>
            <g transform="matrix(1,0,0,1,155.491,1886.76)">
                <path d="M0,-2.537C0,-4.141 -0.829,-5.195 -2.093,-5.195C-3.336,-5.195 -4.171,-4.119 -4.171,-2.537C-4.171,-0.94 -3.336,0.128 -2.093,0.128C-0.829,0.128 0,-0.919 0,-2.537M1.672,-2.537C1.672,-0.075 0.354,1.507 -1.634,1.507C-2.763,1.507 -3.66,1.001 -4.127,0.12L-4.165,0.12L-4.165,4.044L-5.791,4.044L-5.791,-6.498L-4.217,-6.498L-4.217,-5.181L-4.187,-5.181C-3.735,-6.031 -2.771,-6.581 -1.665,-6.581C0.346,-6.581 1.672,-4.992 1.672,-2.537" style="fill-rule:nonzero;"/>
            </g>
            <g transform="matrix(1,0,0,1,162.925,1880.34)">
                <path d="M0,4.812C0.121,5.889 1.167,6.596 2.598,6.596C3.968,6.596 4.955,5.889 4.955,4.917C4.955,4.074 4.36,3.569 2.952,3.223L1.543,2.884C-0.452,2.402 -1.378,1.469 -1.378,-0.045C-1.378,-1.92 0.256,-3.208 2.575,-3.208C4.872,-3.208 6.446,-1.92 6.499,-0.045L4.857,-0.045C4.759,-1.129 3.862,-1.785 2.553,-1.785C1.243,-1.785 0.346,-1.122 0.346,-0.158C0.346,0.61 0.919,1.062 2.319,1.408L3.517,1.702C5.746,2.229 6.671,3.125 6.671,4.714C6.671,6.747 5.053,8.02 2.478,8.02C0.068,8.02 -1.559,6.777 -1.665,4.812L0,4.812Z" style="fill-rule:nonzero;"/>
            </g>
            <g transform="matrix(1,0,0,1,173.107,1888.23)">
                <path d="M0,-9.842L0,-7.967L1.507,-7.967L1.507,-6.68L0,-6.68L0,-2.313C0,-1.634 0.302,-1.318 0.964,-1.318C1.13,-1.318 1.394,-1.341 1.499,-1.356L1.499,-0.075C1.319,-0.03 0.957,0 0.596,0C-1.008,0 -1.634,-0.603 -1.634,-2.139L-1.634,-6.68L-2.786,-6.68L-2.786,-7.967L-1.634,-7.967L-1.634,-9.842L0,-9.842Z" style="fill-rule:nonzero;"/>
            </g>
            <g transform="matrix(1,0,0,1,181.344,1884.22)">
                <path d="M0,0C0,-1.71 -0.784,-2.719 -2.102,-2.719C-3.419,-2.719 -4.203,-1.702 -4.203,0C-4.203,1.717 -3.419,2.718 -2.102,2.718C-0.784,2.718 0,1.717 0,0M-5.858,0C-5.858,-2.492 -4.391,-4.059 -2.102,-4.059C0.195,-4.059 1.657,-2.492 1.657,0C1.657,2.499 0.203,4.059 -2.102,4.059C-4.405,4.059 -5.858,2.499 -5.858,0" style="fill-rule:nonzero;"/>
            </g>
            <g transform="matrix(1,0,0,1,184.341,1888.1)">
                <path d="M0,-7.839L1.551,-7.839L1.551,-6.491L1.588,-6.491C1.837,-7.388 2.56,-7.922 3.494,-7.922C3.727,-7.922 3.923,-7.892 4.051,-7.861L4.051,-6.341C3.923,-6.394 3.637,-6.439 3.32,-6.439C2.273,-6.439 1.626,-5.731 1.626,-4.616L1.626,0.083L0,0.083L0,-7.839Z" style="fill-rule:nonzero;"/>
            </g>
            <g transform="matrix(1,0,0,1,190.393,1884.95)">
                <path d="M0,-1.461L3.96,-1.461C3.923,-2.674 3.147,-3.472 2.018,-3.472C0.896,-3.472 0.083,-2.658 0,-1.461M5.497,0.903C5.278,2.342 3.878,3.328 2.086,3.328C-0.219,3.328 -1.649,1.784 -1.649,-0.692C-1.649,-3.178 -0.211,-4.789 2.018,-4.789C4.209,-4.789 5.587,-3.283 5.587,-0.882L5.587,-0.324L-0.008,-0.324L-0.008,-0.227C-0.008,1.129 0.843,2.018 2.124,2.018C3.027,2.018 3.735,1.589 3.953,0.903L5.497,0.903Z" style="fill-rule:nonzero;"/>
            </g>
            <g transform="matrix(1,0,0,1,132.045,1869.68)">
                <path d="M0,3.744L0.984,3.744C2.076,3.744 2.706,3.064 2.706,1.867C2.706,0.687 2.066,0 0.984,0L0,0L0,3.744ZM1.075,-0.738C2.623,-0.738 3.532,0.213 3.532,1.856C3.532,3.524 2.63,4.482 1.075,4.482L-0.811,4.482L-0.811,-0.738L1.075,-0.738Z" style="fill-rule:nonzero;"/>
            </g>
            <g transform="matrix(1,0,0,1,137.285,1872.56)">
                <path d="M0,-0.726L1.99,-0.726C1.972,-1.345 1.596,-1.747 1.02,-1.747C0.445,-1.747 0.043,-1.341 0,-0.726M2.735,0.544C2.558,1.25 1.929,1.683 1.028,1.683C-0.101,1.683 -0.792,0.909 -0.792,-0.35C-0.792,-1.61 -0.086,-2.409 1.024,-2.409C2.121,-2.409 2.782,-1.66 2.782,-0.422L2.782,-0.151L0,-0.151L0,-0.108C0.025,0.584 0.427,1.021 1.049,1.021C1.52,1.021 1.842,0.851 1.987,0.544L2.735,0.544Z" style="fill-rule:nonzero;"/>
            </g>
            <g transform="matrix(1,0,0,1,142.551,1874.24)">
                <path d="M0,-4.092C0.886,-4.092 1.465,-3.68 1.542,-2.986L0.795,-2.986C0.724,-3.275 0.441,-3.459 0,-3.459C-0.434,-3.459 -0.764,-3.253 -0.764,-2.946C-0.764,-2.71 -0.565,-2.562 -0.138,-2.464L0.517,-2.313C1.267,-2.138 1.618,-1.817 1.618,-1.238C1.618,-0.495 0.926,0 -0.015,0C-0.952,0 -1.563,-0.423 -1.632,-1.121L-0.854,-1.121C-0.756,-0.818 -0.466,-0.63 0.003,-0.63C0.488,-0.63 0.833,-0.847 0.833,-1.161C0.833,-1.397 0.648,-1.549 0.253,-1.643L-0.434,-1.802C-1.184,-1.98 -1.53,-2.316 -1.53,-2.902C-1.53,-3.601 -0.89,-4.092 0,-4.092" style="fill-rule:nonzero;"/>
            </g>
            <g transform="matrix(1,0,0,1,147.796,1872.88)">
                <path d="M0,-1.366C-0.091,-1.749 -0.41,-2.035 -0.931,-2.035C-1.582,-2.035 -1.98,-1.536 -1.98,-0.696C-1.98,0.157 -1.579,0.668 -0.931,0.668C-0.438,0.668 -0.102,0.444 0,0.021L0.756,0.021C0.654,0.813 0.047,1.363 -0.926,1.363C-2.074,1.363 -2.775,0.588 -2.775,-0.696C-2.775,-1.959 -2.078,-2.729 -0.931,-2.729C0.057,-2.729 0.654,-2.154 0.756,-1.366L0,-1.366Z" style="fill-rule:nonzero;"/>
            </g>
            <g transform="matrix(1,0,0,1,150.619,1872.99)">
                <path d="M0,-3.42L0.908,-4.664L1.82,-4.664L0.803,-3.42L0,-3.42ZM1.237,-0.272L1.237,-0.602L0.275,-0.54C-0.268,-0.504 -0.514,-0.319 -0.514,0.028C-0.514,0.383 -0.206,0.59 0.217,0.59C0.803,0.59 1.237,0.217 1.237,-0.272M-1.295,0.064C-1.295,-0.645 -0.768,-1.054 0.17,-1.111L1.237,-1.173L1.237,-1.513C1.237,-1.929 0.962,-2.164 0.431,-2.164C-0.003,-2.164 -0.304,-2.005 -0.391,-1.727L-1.144,-1.727C-1.064,-2.403 -0.427,-2.837 0.466,-2.837C1.454,-2.837 2.011,-2.346 2.011,-1.513L2.011,1.179L1.263,1.179L1.263,0.625L1.201,0.625C0.966,1.019 0.536,1.244 0.018,1.244C-0.742,1.244 -1.295,0.785 -1.295,0.064" style="fill-rule:nonzero;"/>
            </g>
            <g transform="matrix(1,0,0,1,153.848,1874.1)">
                <path d="M0,-3.874L0.749,-3.874L0.749,-3.27L0.807,-3.27C0.918,-3.657 1.356,-3.939 1.871,-3.939C1.986,-3.939 2.134,-3.929 2.217,-3.907L2.217,-3.14C2.152,-3.162 1.921,-3.187 1.783,-3.187C1.194,-3.187 0.777,-2.814 0.777,-2.261L0.777,0.065L0,0.065L0,-3.874Z" style="fill-rule:nonzero;"/>
            </g>
            <g transform="matrix(1,0,0,1,159.541,1873.68)">
                <path d="M0,-1.538C0,-2.323 -0.406,-2.826 -1.068,-2.826C-1.737,-2.826 -2.113,-2.323 -2.113,-1.538C-2.113,-0.753 -1.737,-0.25 -1.068,-0.25C-0.401,-0.25 0,-0.749 0,-1.538M-2.761,0.875L-1.965,0.875C-1.899,1.161 -1.57,1.346 -1.046,1.346C-0.398,1.346 -0.014,1.038 -0.014,0.518L-0.014,-0.239L-0.072,-0.239C-0.312,0.188 -0.746,0.423 -1.289,0.423C-2.294,0.423 -2.917,-0.354 -2.917,-1.534C-2.917,-2.736 -2.287,-3.524 -1.281,-3.524C-0.738,-3.524 -0.265,-3.257 -0.043,-2.83L0.018,-2.83L0.018,-3.459L0.763,-3.459L0.763,0.514C0.763,1.414 0.058,1.986 -1.057,1.986C-2.041,1.986 -2.678,1.545 -2.761,0.875" style="fill-rule:nonzero;"/>
            </g>
            <g transform="matrix(1,0,0,1,163.851,1871.67)">
                <path d="M0,1.049L0,0.719L-0.962,0.78C-1.504,0.817 -1.75,1.001 -1.75,1.349C-1.75,1.703 -1.443,1.91 -1.02,1.91C-0.434,1.91 0,1.537 0,1.049M-2.533,1.385C-2.533,0.676 -2.004,0.267 -1.067,0.209L0,0.148L0,-0.192C0,-0.608 -0.275,-0.844 -0.807,-0.844C-1.241,-0.844 -1.542,-0.684 -1.627,-0.406L-2.38,-0.406C-2.301,-1.083 -1.665,-1.516 -0.771,-1.516C0.217,-1.516 0.774,-1.025 0.774,-0.192L0.774,2.499L0.026,2.499L0.026,1.945L-0.036,1.945C-0.271,2.34 -0.701,2.565 -1.219,2.565C-1.979,2.565 -2.533,2.106 -2.533,1.385" style="fill-rule:nonzero;"/>
            </g>
            <g transform="matrix(1,0,0,1,0,1571.85)">
                <rect x="165.879" y="296.834" width="0.778" height="5.478"/>
            </g>
            <g transform="matrix(1,0,0,1,170.654,1872.2)">
                <path d="M0,-0.004C0,-0.858 -0.384,-1.358 -1.057,-1.358C-1.733,-1.358 -2.113,-0.858 -2.113,-0.004C-2.113,0.857 -1.733,1.352 -1.057,1.352C-0.384,1.352 0,0.853 0,-0.004M-2.917,-0.004C-2.917,-1.274 -2.207,-2.048 -1.057,-2.048C0.091,-2.048 0.8,-1.274 0.8,-0.004C0.8,1.273 0.094,2.044 -1.057,2.044C-2.21,2.044 -2.917,1.273 -2.917,-0.004" style="fill-rule:nonzero;"/>
            </g>
            <g transform="matrix(1,0,0,1,175.231,1872.56)">
                <path d="M0,-0.726L1.99,-0.726C1.972,-1.345 1.596,-1.747 1.02,-1.747C0.445,-1.747 0.043,-1.341 0,-0.726M2.735,0.544C2.558,1.25 1.929,1.683 1.028,1.683C-0.101,1.683 -0.792,0.909 -0.792,-0.35C-0.792,-1.61 -0.086,-2.409 1.024,-2.409C2.121,-2.409 2.782,-1.66 2.782,-0.422L2.782,-0.151L0,-0.151L0,-0.108C0.025,0.584 0.427,1.021 1.049,1.021C1.52,1.021 1.842,0.851 1.987,0.544L2.735,0.544Z" style="fill-rule:nonzero;"/>
            </g>
            <g transform="matrix(1,0,0,1,179.058,1874.09)">
                <path d="M0,-3.863L0.749,-3.863L0.749,-3.237L0.807,-3.237C0.998,-3.676 1.39,-3.939 1.982,-3.939C2.862,-3.939 3.346,-3.411 3.346,-2.474L3.346,0.076L2.569,0.076L2.569,-2.279C2.569,-2.912 2.293,-3.226 1.719,-3.226C1.144,-3.226 0.778,-2.843 0.778,-2.228L0.778,0.076L0,0.076L0,-3.863Z" style="fill-rule:nonzero;"/>
            </g>
            <g transform="matrix(1,0,0,1,186.341,1872.56)">
                <path d="M0,-0.726L1.99,-0.726C1.972,-1.345 1.596,-1.747 1.02,-1.747C0.445,-1.747 0.043,-1.341 0,-0.726M2.735,0.544C2.558,1.25 1.928,1.683 1.028,1.683C-0.101,1.683 -0.792,0.909 -0.792,-0.35C-0.792,-1.61 -0.086,-2.409 1.024,-2.409C2.121,-2.409 2.782,-1.66 2.782,-0.422L2.782,-0.151L0,-0.151L0,-0.108C0.025,0.584 0.427,1.021 1.049,1.021C1.52,1.021 1.842,0.851 1.986,0.544L2.735,0.544Z" style="fill-rule:nonzero;"/>
            </g>
            <g transform="matrix(1,0,0,1,0,1571.85)">
                <rect x="190.203" y="296.834" width="0.777" height="5.478"/>
            </g>
        </g>
    </g>
</svg>
