<?xml version="1.0" encoding="UTF-8" standalone="no"?>
<!DOCTYPE svg PUBLIC "-//W3C//DTD SVG 1.1//EN" "http://www.w3.org/Graphics/SVG/1.1/DTD/svg11.dtd">
<svg width="100%" height="100%" viewBox="0 0 240 485" version="1.1" xmlns="http://www.w3.org/2000/svg" xmlns:xlink="http://www.w3.org/1999/xlink" xml:space="preserve" xmlns:serif="http://www.serif.com/" style="fill-rule:evenodd;clip-rule:evenodd;stroke-linejoin:round;stroke-miterlimit:2;">
    <g transform="matrix(1,0,0,1,-243,-708)">
        <g id="img-cellphone_frame" transform="matrix(1,0,0,1,0.455,0.0828)">
            <g transform="matrix(0,-57.4396,-57.4396,0,250.022,861.627)">
                <path d="M1,0.084C1,0.11 0.979,0.13 0.954,0.13L0.046,0.13C0.021,0.13 -0,0.11 -0,0.084L-0,-0.084C-0,-0.11 0.021,-0.13 0.046,-0.13L0.954,-0.13C0.979,-0.13 1,-0.11 1,-0.084L1,0.084Z" style="fill:url(#_Linear1);fill-rule:nonzero;"/>
            </g>
            <g transform="matrix(0,-38.0529,-38.0529,0,474.258,822.854)">
                <path d="M1,0.127C1,0.166 0.969,0.196 0.931,0.196L0.069,0.196C0.031,0.196 -0,0.166 -0,0.127L-0,-0.127C-0,-0.166 0.031,-0.197 0.069,-0.197L0.931,-0.197C0.969,-0.197 1,-0.166 1,-0.127L1,0.127Z" style="fill:url(#_Linear2);fill-rule:nonzero;"/>
            </g>
            <g transform="matrix(0,-38.0529,-38.0529,0,474.258,881.013)">
                <path d="M1,0.127C1,0.166 0.969,0.196 0.931,0.196L0.069,0.196C0.031,0.196 0,0.166 0,0.127L0,-0.127C0,-0.166 0.031,-0.197 0.069,-0.197L0.931,-0.197C0.969,-0.197 1,-0.166 1,-0.127L1,0.127Z" style="fill:url(#_Linear3);fill-rule:nonzero;"/>
            </g>
            <g transform="matrix(1,0,0,1,281.032,707.917)">
                <path d="M0,484.199C-22.698,484.199 -36.798,469.977 -36.798,447.086L-36.798,38.934C-36.798,27.897 -33.517,18.381 -27.309,11.415C-20.653,3.947 -11.21,0 0,0L162.219,0C173.428,0 182.871,3.947 189.526,11.416C195.733,18.382 199.014,27.897 199.014,38.934L199.014,447.086C199.014,469.977 184.915,484.199 162.219,484.199L0,484.199Z" style="fill:rgb(102,102,102);fill-rule:nonzero;"/>
            </g>
            <g transform="matrix(1,0,0,1,281.032,709.21)">
                <path d="M0,481.613C-21.901,481.613 -35.506,467.887 -35.506,445.793L-35.506,37.641C-35.506,26.926 -32.338,17.707 -26.344,10.982C-19.94,3.798 -10.831,0 0,0L162.219,0C173.049,0 182.158,3.798 188.561,10.982C194.554,17.708 197.722,26.926 197.722,37.641L197.722,445.793C197.722,467.887 184.118,481.613 162.219,481.613L0,481.613Z" style="fill:rgb(230,230,230);fill-rule:nonzero;"/>
            </g>
            <g transform="matrix(1,0,0,1,281.032,710.502)">
                <path d="M0,479.029C-21.104,479.029 -34.213,465.799 -34.213,444.501L-34.213,36.349C-34.213,25.956 -31.159,17.035 -25.379,10.55C-19.228,3.648 -10.452,0 0,0L162.219,0C172.67,0 181.446,3.648 187.596,10.55C193.375,17.035 196.429,25.957 196.429,36.349L196.429,444.501C196.429,465.799 183.321,479.029 162.219,479.029L0,479.029Z" style="fill-rule:nonzero;"/>
            </g>
            <g transform="matrix(1,0,0,1,281.032,716.964)">
                <path d="M0,466.105C-17.812,466.105 -27.751,455.522 -27.751,438.039L-27.751,29.887C-27.751,12.404 -17.812,0 0,0L162.219,0C180.029,0 189.967,12.404 189.967,29.887L189.967,438.039C189.967,455.522 180.029,466.105 162.219,466.105L0,466.105Z" style="fill:white;fill-rule:nonzero;"/>
            </g>
        </g>
    </g>
    <defs>
        <linearGradient id="_Linear1" x1="0" y1="0" x2="1" y2="0" gradientUnits="userSpaceOnUse" gradientTransform="matrix(1,0,0,-1,0,6.91858e-06)"><stop offset="0" style="stop-color:rgb(179,179,179);stop-opacity:1"/><stop offset="0.17" style="stop-color:rgb(102,102,102);stop-opacity:1"/><stop offset="0.85" style="stop-color:rgb(102,102,102);stop-opacity:1"/><stop offset="1" style="stop-color:rgb(179,179,179);stop-opacity:1"/></linearGradient>
        <linearGradient id="_Linear2" x1="0" y1="0" x2="1" y2="0" gradientUnits="userSpaceOnUse" gradientTransform="matrix(1,0,0,-1,0,-2.00037e-05)"><stop offset="0" style="stop-color:rgb(179,179,179);stop-opacity:1"/><stop offset="0.17" style="stop-color:rgb(102,102,102);stop-opacity:1"/><stop offset="0.85" style="stop-color:rgb(102,102,102);stop-opacity:1"/><stop offset="1" style="stop-color:rgb(179,179,179);stop-opacity:1"/></linearGradient>
        <linearGradient id="_Linear3" x1="0" y1="0" x2="1" y2="0" gradientUnits="userSpaceOnUse" gradientTransform="matrix(1,0,0,-1,0,-2.00037e-05)"><stop offset="0" style="stop-color:rgb(179,179,179);stop-opacity:1"/><stop offset="0.17" style="stop-color:rgb(102,102,102);stop-opacity:1"/><stop offset="0.85" style="stop-color:rgb(102,102,102);stop-opacity:1"/><stop offset="1" style="stop-color:rgb(179,179,179);stop-opacity:1"/></linearGradient>
    </defs>
</svg>
