<?xml version="1.0" encoding="UTF-8" standalone="no"?>
<!DOCTYPE svg PUBLIC "-//W3C//DTD SVG 1.1//EN" "http://www.w3.org/Graphics/SVG/1.1/DTD/svg11.dtd">
<svg width="100%" height="100%" viewBox="0 0 193 75" version="1.1" xmlns="http://www.w3.org/2000/svg" xmlns:xlink="http://www.w3.org/1999/xlink" xml:space="preserve" xmlns:serif="http://www.serif.com/" style="fill-rule:evenodd;clip-rule:evenodd;stroke-linejoin:round;stroke-miterlimit:2;">
    <g transform="matrix(1,0,0,1,-141,-49)">
        <g id="logo-BTG" transform="matrix(1,0,0,1,0.2947,0.2299)">
            <g transform="matrix(1,0,0,1,200.549,88.5881)">
                <path d="M0,-4.738L0.916,-9.198L-6.969,-9.198L-6.969,-15.292L-12.505,-14.455L-12.505,3.745C-12.505,10.038 -10.036,11.909 -3.305,11.909L-0.358,11.909L0.558,7.489L-2.907,7.489C-5.974,7.489 -6.969,6.732 -6.969,3.387L-6.969,-4.738L0,-4.738ZM-27.201,-5.494C-23.378,-5.494 -22.023,-3.981 -22.023,0.519L-22.023,2.192C-22.023,6.573 -23.378,8.086 -27.281,8.086C-31.184,8.086 -32.538,6.573 -32.538,2.152L-32.538,-0.118C-32.538,-4.14 -31.184,-5.494 -27.201,-5.494M-38.034,-17.403L-38.034,2.152C-38.034,9.401 -34.688,12.428 -27.4,12.428C-19.833,12.428 -16.488,9.48 -16.488,2.192L-16.488,0.32C-16.488,-6.53 -19.594,-9.875 -26.365,-9.875C-28.515,-9.875 -30.865,-9.437 -32.458,-8.202L-32.458,-18.279L-38.034,-17.403ZM18.479,1.953C18.479,5.697 17.165,6.852 13.382,6.852C9.12,6.852 8.284,5.378 8.284,1.037L8.284,0.36C8.284,-3.941 9.041,-5.494 13.382,-5.494C17.643,-5.494 18.479,-3.981 18.479,0.4L18.479,1.953ZM13.382,-9.875C6.094,-9.875 2.748,-6.809 2.748,0.2L2.748,1.276C2.748,7.927 5.656,11.153 12.505,11.153C14.696,11.153 16.886,10.755 18.439,9.52L18.439,10.316C18.439,14.06 16.807,15.295 12.983,15.295L10.695,15.295C9.385,15.318 8.791,15.55 8.002,16.843L7.998,16.841C1.431,27.233 -9.969,33.583 -22.394,33.583C-42.218,33.583 -58.345,17.455 -58.345,-2.368C-58.345,-22.192 -42.218,-38.32 -22.394,-38.32C-8.47,-38.32 4.198,-30.256 10.125,-17.706L11.776,-17.706C5.737,-31.144 -7.653,-39.818 -22.394,-39.818C-43.043,-39.818 -59.844,-23.018 -59.844,-2.368C-59.844,18.281 -43.043,35.08 -22.394,35.08C-10.25,35.08 0.958,29.258 7.944,19.596L13.302,19.596C20.351,19.596 23.976,16.928 23.976,10.117L23.976,-0.158C23.976,-6.928 20.51,-9.875 13.382,-9.875" style="fill:rgb(0,30,98);fill-rule:nonzero;"/>
            </g>
            <g transform="matrix(1,0,0,1,269.91,87.6422)">
                <path d="M0,2.85L0,1.304C0,-3.644 1.69,-5.398 6.46,-5.398L10.49,-5.398L10.875,-7.067L6.46,-7.067C0.771,-7.067 -1.767,-4.485 -1.767,1.304L-1.767,2.85C-1.767,8.64 0.771,11.222 6.46,11.222L10.538,11.222L10.923,9.552L6.46,9.552C1.811,9.552 0,7.673 0,2.85M-6.598,5.942C-6.598,8.644 -7.995,9.648 -11.753,9.648L-12.478,9.648C-16.125,9.648 -17.682,8.467 -17.682,5.7L-17.682,5.411C-17.682,2.406 -16.212,1.124 -12.768,1.124L-12.478,1.124C-8.356,1.124 -6.598,2.363 -6.598,5.266L-6.598,5.942ZM-12.719,-7.067L-17.377,-7.067L-17.762,-5.398L-12.719,-5.398C-8.143,-5.398 -6.598,-4.17 -6.598,-0.532L-6.598,1.228C-7.741,0.083 -9.764,-0.497 -12.623,-0.497C-17.184,-0.497 -19.4,1.435 -19.4,5.411L-19.4,5.7C-19.4,9.428 -17.202,11.318 -12.865,11.318L-11.705,11.318C-7.175,11.318 -4.879,9.428 -4.879,5.7L-4.879,-0.532C-4.879,-5.174 -7.151,-7.067 -12.719,-7.067M38.863,4.058C38.863,8.363 37.517,9.745 33.321,9.745C29.25,9.745 27.875,8.31 27.875,4.058L27.875,-7.067L26.109,-7.067L26.109,4.058C26.109,9.352 28.131,11.414 33.321,11.414C38.478,11.414 40.582,9.283 40.582,4.058L40.582,-7.067L38.863,-7.067L38.863,4.058ZM22.954,-5.398L23.339,-7.067L15.653,-7.067L15.653,-11.842L13.887,-11.527L13.887,4.83C13.887,9.489 15.632,11.222 20.326,11.222L22.864,11.222L23.185,9.552L20.326,9.552C16.788,9.552 15.653,8.428 15.653,4.927L15.653,-5.398L22.954,-5.398ZM61.666,11.318L63.385,11.318L63.385,-13.976L61.666,-13.976L61.666,11.318ZM56.4,5.942C56.4,8.609 54.941,9.648 51.197,9.648L50.471,9.648C46.858,9.648 45.316,8.467 45.316,5.7L45.316,5.411C45.316,2.406 46.786,1.124 50.229,1.124L50.52,1.124C54.642,1.124 56.4,2.363 56.4,5.266L56.4,5.942ZM50.229,-7.067L45.573,-7.067L45.188,-5.398L50.229,-5.398C54.843,-5.398 56.4,-4.17 56.4,-0.532L56.4,1.228C55.257,0.083 53.233,-0.497 50.375,-0.497C45.814,-0.497 43.597,1.435 43.597,5.411L43.597,5.7C43.597,9.428 45.78,11.318 50.085,11.318L51.245,11.318C55.805,11.318 58.118,9.428 58.118,5.7L58.118,-0.532C58.118,-5.174 55.833,-7.067 50.229,-7.067M-23.845,2.85C-23.845,7.806 -25.491,9.648 -29.918,9.648C-34.109,9.648 -36.233,7.605 -36.233,3.575L-36.233,1.111C-36.233,-3.718 -34.432,-5.688 -30.015,-5.688C-25.575,-5.688 -23.845,-3.795 -23.845,1.062L-23.845,2.85ZM-30.015,-7.358C-35.462,-7.358 -38,-4.667 -38,1.111L-38,16.826L-36.281,16.826L-36.281,8.756C-35.039,10.372 -32.72,11.318 -29.918,11.318C-24.496,11.318 -22.078,8.706 -22.078,2.85L-22.078,1.062C-22.078,-4.76 -24.526,-7.358 -30.015,-7.358" style="fill:rgb(0,30,98);fill-rule:nonzero;"/>
            </g>
        </g>
    </g>
</svg>
